<?xml version="1.0" encoding="UTF-8" standalone="no"?>
<!DOCTYPE svg PUBLIC "-//W3C//DTD SVG 1.1//EN"
 "http://www.w3.org/Graphics/SVG/1.1/DTD/svg11.dtd">
<!-- Generated by graphviz version 2.38.0 (20140413.2041)
 -->
<!-- Title: %3 Pages: 1 -->
<svg width="1094pt" height="1009pt"
 viewBox="0.00 0.00 1094.05 1008.63" xmlns="http://www.w3.org/2000/svg" xmlns:xlink="http://www.w3.org/1999/xlink">
<g id="graph0" class="graph" transform="scale(1 1) rotate(0) translate(4 1004.63)">
<title>%3</title>
<polygon fill="#404040" stroke="none" points="-4,4 -4,-1004.63 1090.05,-1004.63 1090.05,4 -4,4"/>
<!-- 1023548907543 -->
<g id="node1" class="node"><title>1023548907543</title>
<polygon fill="white" stroke="white" points="929.075,-330.65 929.075,-373.8 891.848,-404.311 839.202,-404.311 801.976,-373.8 801.976,-330.65 839.202,-300.138 891.848,-300.138 929.075,-330.65"/>
<polygon fill="none" stroke="white" points="933.076,-328.754 933.076,-375.695 893.278,-408.315 837.773,-408.315 797.975,-375.695 797.975,-328.754 837.773,-296.135 893.278,-296.135 933.076,-328.754"/>
<text text-anchor="middle" x="865.525" y="-371.025" font-family="monospace" font-size="14.00">Barren</text>
<text text-anchor="middle" x="865.525" y="-356.025" font-family="monospace" font-size="14.00">Advanced</text>
<text text-anchor="middle" x="865.525" y="-341.025" font-family="monospace" font-size="14.00">Industry</text>
<text text-anchor="middle" x="865.525" y="-326.025" font-family="monospace" font-size="14.00">Facility</text>
</g>
<!-- 1023548907565 -->
<g id="node2" class="node"><title>1023548907565</title>
<polygon fill="white" stroke="white" points="929.075,-182.56 929.075,-225.71 891.848,-256.222 839.202,-256.222 801.976,-225.71 801.976,-182.56 839.202,-152.048 891.848,-152.048 929.075,-182.56"/>
<polygon fill="none" stroke="white" points="933.076,-180.664 933.076,-227.605 893.278,-260.225 837.773,-260.225 797.975,-227.605 797.975,-180.664 837.773,-148.045 893.278,-148.045 933.076,-180.664"/>
<text text-anchor="middle" x="865.525" y="-222.935" font-family="monospace" font-size="14.00">Barren</text>
<text text-anchor="middle" x="865.525" y="-207.935" font-family="monospace" font-size="14.00">Advanced</text>
<text text-anchor="middle" x="865.525" y="-192.935" font-family="monospace" font-size="14.00">Industry</text>
<text text-anchor="middle" x="865.525" y="-177.935" font-family="monospace" font-size="14.00">Facility</text>
</g>
<!-- 1023548907543&#45;&#45;1023548907565 -->
<g id="edge1" class="edge"><title>1023548907543&#45;&#45;1023548907565</title>
<path fill="none" stroke="white" stroke-width="2" d="M865.525,-295.994C865.525,-284.359 865.525,-272.081 865.525,-260.443"/>
</g>
<!-- 1023548907601 -->
<g id="node5" class="node"><title>1023548907601</title>
<polygon fill="white" stroke="white" points="929.075,-34.4699 929.075,-77.62 891.848,-108.132 839.202,-108.132 801.976,-77.62 801.976,-34.4699 839.202,-3.95823 891.848,-3.95823 929.075,-34.4699"/>
<polygon fill="none" stroke="white" points="933.076,-32.5745 933.076,-79.5154 893.278,-112.135 837.773,-112.135 797.975,-79.5154 797.975,-32.5745 837.773,0.0449829 893.278,0.0449829 933.076,-32.5745"/>
<text text-anchor="middle" x="865.525" y="-74.8449" font-family="monospace" font-size="14.00">Barren</text>
<text text-anchor="middle" x="865.525" y="-59.8449" font-family="monospace" font-size="14.00">Advanced</text>
<text text-anchor="middle" x="865.525" y="-44.8449" font-family="monospace" font-size="14.00">Industry</text>
<text text-anchor="middle" x="865.525" y="-29.8449" font-family="monospace" font-size="14.00">Facility</text>
</g>
<!-- 1023548907565&#45;&#45;1023548907601 -->
<g id="edge3" class="edge"><title>1023548907565&#45;&#45;1023548907601</title>
<path fill="none" stroke="white" stroke-width="2" d="M865.525,-147.905C865.525,-136.269 865.525,-123.992 865.525,-112.353"/>
</g>
<!-- 1023548907549 -->
<g id="node3" class="node"><title>1023548907549</title>
<polygon fill="white" stroke="white" points="1082.07,-330.65 1082.07,-373.8 1044.85,-404.311 992.202,-404.311 954.976,-373.8 954.976,-330.65 992.202,-300.138 1044.85,-300.138 1082.07,-330.65"/>
<polygon fill="none" stroke="white" points="1086.08,-328.754 1086.08,-375.695 1046.28,-408.315 990.773,-408.315 950.975,-375.695 950.975,-328.754 990.773,-296.135 1046.28,-296.135 1086.08,-328.754"/>
<text text-anchor="middle" x="1018.53" y="-371.025" font-family="monospace" font-size="14.00">Barren</text>
<text text-anchor="middle" x="1018.53" y="-356.025" font-family="monospace" font-size="14.00">Advanced</text>
<text text-anchor="middle" x="1018.53" y="-341.025" font-family="monospace" font-size="14.00">Industry</text>
<text text-anchor="middle" x="1018.53" y="-326.025" font-family="monospace" font-size="14.00">Facility</text>
</g>
<!-- 1023548907558 -->
<g id="node4" class="node"><title>1023548907558</title>
<polygon fill="white" stroke="white" points="1082.07,-182.56 1082.07,-225.71 1044.85,-256.222 992.202,-256.222 954.976,-225.71 954.976,-182.56 992.202,-152.048 1044.85,-152.048 1082.07,-182.56"/>
<polygon fill="none" stroke="white" points="1086.08,-180.664 1086.08,-227.605 1046.28,-260.225 990.773,-260.225 950.975,-227.605 950.975,-180.664 990.773,-148.045 1046.28,-148.045 1086.08,-180.664"/>
<text text-anchor="middle" x="1018.53" y="-222.935" font-family="monospace" font-size="14.00">Barren</text>
<text text-anchor="middle" x="1018.53" y="-207.935" font-family="monospace" font-size="14.00">Advanced</text>
<text text-anchor="middle" x="1018.53" y="-192.935" font-family="monospace" font-size="14.00">Industry</text>
<text text-anchor="middle" x="1018.53" y="-177.935" font-family="monospace" font-size="14.00">Facility</text>
</g>
<!-- 1023548907549&#45;&#45;1023548907558 -->
<g id="edge2" class="edge"><title>1023548907549&#45;&#45;1023548907558</title>
<path fill="none" stroke="white" stroke-width="2" d="M1018.53,-295.994C1018.53,-284.359 1018.53,-272.081 1018.53,-260.443"/>
</g>
<!-- 1023548907568 -->
<g id="node6" class="node"><title>1023548907568</title>
<polygon fill="white" stroke="white" points="432.025,-378.725 349.025,-378.725 349.025,-325.725 432.025,-325.725 432.025,-378.725"/>
<text text-anchor="middle" x="390.525" y="-363.525" font-family="monospace" font-size="14.00">Barren</text>
<text text-anchor="middle" x="390.525" y="-348.525" font-family="monospace" font-size="14.00">Storage</text>
<text text-anchor="middle" x="390.525" y="-333.525" font-family="monospace" font-size="14.00">Facility</text>
</g>
<!-- 1023548907575 -->
<g id="node7" class="node"><title>1023548907575</title>
<polygon fill="white" stroke="white" points="284.075,-182.56 284.075,-225.71 246.848,-256.222 194.202,-256.222 156.976,-225.71 156.976,-182.56 194.202,-152.048 246.848,-152.048 284.075,-182.56"/>
<polygon fill="none" stroke="white" points="288.076,-180.664 288.076,-227.605 248.278,-260.225 192.773,-260.225 152.975,-227.605 152.975,-180.664 192.773,-148.045 248.278,-148.045 288.076,-180.664"/>
<text text-anchor="middle" x="220.525" y="-222.935" font-family="monospace" font-size="14.00">Barren</text>
<text text-anchor="middle" x="220.525" y="-207.935" font-family="monospace" font-size="14.00">Advanced</text>
<text text-anchor="middle" x="220.525" y="-192.935" font-family="monospace" font-size="14.00">Industry</text>
<text text-anchor="middle" x="220.525" y="-177.935" font-family="monospace" font-size="14.00">Facility</text>
</g>
<!-- 1023548907568&#45;&#45;1023548907575 -->
<g id="edge4" class="edge"><title>1023548907568&#45;&#45;1023548907575</title>
<path fill="none" stroke="white" stroke-width="2" d="M360.524,-325.443C334.693,-303.245 296.985,-270.84 267.21,-245.253"/>
</g>
<!-- 1023548907594 -->
<g id="node8" class="node"><title>1023548907594</title>
<polygon fill="white" stroke="white" points="457.069,-182.558 457.069,-225.711 412.817,-256.225 350.234,-256.225 305.982,-225.711 305.982,-182.558 350.234,-152.045 412.817,-152.045 457.069,-182.558"/>
<text text-anchor="middle" x="381.525" y="-222.935" font-family="monospace" font-size="14.00">Barren</text>
<text text-anchor="middle" x="381.525" y="-207.935" font-family="monospace" font-size="14.00">High&#45;Tech</text>
<text text-anchor="middle" x="381.525" y="-192.935" font-family="monospace" font-size="14.00">Production</text>
<text text-anchor="middle" x="381.525" y="-177.935" font-family="monospace" font-size="14.00">Plant</text>
</g>
<!-- 1023548907568&#45;&#45;1023548907594 -->
<g id="edge5" class="edge"><title>1023548907568&#45;&#45;1023548907594</title>
<path fill="none" stroke="white" stroke-width="2" d="M388.937,-325.443C387.761,-306.357 386.121,-279.727 384.682,-256.372"/>
</g>
<!-- 1023548907583 -->
<g id="node9" class="node"><title>1023548907583</title>
<polygon fill="white" stroke="white" points="618.069,-330.648 618.069,-373.801 573.817,-404.315 511.234,-404.315 466.982,-373.801 466.982,-330.648 511.234,-300.135 573.817,-300.135 618.069,-330.648"/>
<text text-anchor="middle" x="542.525" y="-371.025" font-family="monospace" font-size="14.00">Barren</text>
<text text-anchor="middle" x="542.525" y="-356.025" font-family="monospace" font-size="14.00">High&#45;Tech</text>
<text text-anchor="middle" x="542.525" y="-341.025" font-family="monospace" font-size="14.00">Production</text>
<text text-anchor="middle" x="542.525" y="-326.025" font-family="monospace" font-size="14.00">Plant</text>
</g>
<!-- 1023548907583&#45;&#45;1023548907594 -->
<g id="edge6" class="edge"><title>1023548907583&#45;&#45;1023548907594</title>
<path fill="none" stroke="white" stroke-width="2" d="M496.82,-309.752C474.973,-289.928 448.892,-266.263 427.066,-246.458"/>
</g>
<!-- 1023548907597 -->
<g id="node10" class="node"><title>1023548907597</title>
<polygon fill="white" stroke="white" points="627.069,-182.558 627.069,-225.711 582.817,-256.225 520.234,-256.225 475.982,-225.711 475.982,-182.558 520.234,-152.045 582.817,-152.045 627.069,-182.558"/>
<text text-anchor="middle" x="551.525" y="-222.935" font-family="monospace" font-size="14.00">Barren</text>
<text text-anchor="middle" x="551.525" y="-207.935" font-family="monospace" font-size="14.00">High&#45;Tech</text>
<text text-anchor="middle" x="551.525" y="-192.935" font-family="monospace" font-size="14.00">Production</text>
<text text-anchor="middle" x="551.525" y="-177.935" font-family="monospace" font-size="14.00">Plant</text>
</g>
<!-- 1023548907583&#45;&#45;1023548907597 -->
<g id="edge7" class="edge"><title>1023548907583&#45;&#45;1023548907597</title>
<path fill="none" stroke="white" stroke-width="2" d="M545.673,-300.13C546.545,-285.977 547.492,-270.613 548.364,-256.448"/>
</g>
<!-- 1023548907467 -->
<g id="node11" class="node"><title>1023548907467</title>
<polygon fill="white" stroke="white" points="776.075,-923.009 776.075,-966.159 738.848,-996.671 686.202,-996.671 648.976,-966.159 648.976,-923.009 686.202,-892.498 738.848,-892.498 776.075,-923.009"/>
<polygon fill="none" stroke="white" points="780.076,-921.114 780.076,-968.055 740.278,-1000.67 684.773,-1000.67 644.975,-968.055 644.975,-921.114 684.773,-888.494 740.278,-888.494 780.076,-921.114"/>
<text text-anchor="middle" x="712.525" y="-963.384" font-family="monospace" font-size="14.00">Barren</text>
<text text-anchor="middle" x="712.525" y="-948.384" font-family="monospace" font-size="14.00">Advanced</text>
<text text-anchor="middle" x="712.525" y="-933.384" font-family="monospace" font-size="14.00">Industry</text>
<text text-anchor="middle" x="712.525" y="-918.384" font-family="monospace" font-size="14.00">Facility</text>
</g>
<!-- 1023548907473 -->
<g id="node12" class="node"><title>1023548907473</title>
<polygon fill="white" stroke="white" points="776.075,-774.919 776.075,-818.069 738.848,-848.581 686.202,-848.581 648.976,-818.069 648.976,-774.919 686.202,-744.408 738.848,-744.408 776.075,-774.919"/>
<polygon fill="none" stroke="white" points="780.076,-773.024 780.076,-819.965 740.278,-852.584 684.773,-852.584 644.975,-819.965 644.975,-773.024 684.773,-740.404 740.278,-740.404 780.076,-773.024"/>
<text text-anchor="middle" x="712.525" y="-815.294" font-family="monospace" font-size="14.00">Barren</text>
<text text-anchor="middle" x="712.525" y="-800.294" font-family="monospace" font-size="14.00">Advanced</text>
<text text-anchor="middle" x="712.525" y="-785.294" font-family="monospace" font-size="14.00">Industry</text>
<text text-anchor="middle" x="712.525" y="-770.294" font-family="monospace" font-size="14.00">Facility</text>
</g>
<!-- 1023548907467&#45;&#45;1023548907473 -->
<g id="edge8" class="edge"><title>1023548907467&#45;&#45;1023548907473</title>
<path fill="none" stroke="white" stroke-width="2" d="M712.525,-888.354C712.525,-876.719 712.525,-864.441 712.525,-852.803"/>
</g>
<!-- 1023548907491 -->
<g id="node18" class="node"><title>1023548907491</title>
<polygon fill="white" stroke="white" points="758.025,-667.405 667.025,-667.405 667.025,-629.405 758.025,-629.405 758.025,-667.405"/>
<text text-anchor="middle" x="712.525" y="-652.205" font-family="monospace" font-size="14.00">Barren</text>
<text text-anchor="middle" x="712.525" y="-637.205" font-family="monospace" font-size="14.00">Launchpad</text>
</g>
<!-- 1023548907473&#45;&#45;1023548907491 -->
<g id="edge11" class="edge"><title>1023548907473&#45;&#45;1023548907491</title>
<path fill="none" stroke="white" stroke-width="2" d="M712.525,-740.264C712.525,-714.569 712.525,-685.743 712.525,-667.586"/>
</g>
<!-- 1023548849100 -->
<g id="node13" class="node"><title>1023548849100</title>
<polygon fill="white" stroke="white" points="872.525,-971.084 798.525,-971.084 798.525,-918.084 872.525,-918.084 872.525,-971.084"/>
<text text-anchor="middle" x="835.525" y="-955.884" font-family="monospace" font-size="14.00">Barren</text>
<text text-anchor="middle" x="835.525" y="-940.884" font-family="monospace" font-size="14.00">Command</text>
<text text-anchor="middle" x="835.525" y="-925.884" font-family="monospace" font-size="14.00">Center</text>
</g>
<!-- 1023548907469 -->
<g id="node14" class="node"><title>1023548907469</title>
<polygon fill="white" stroke="white" points="543.075,-774.919 543.075,-818.069 505.848,-848.581 453.202,-848.581 415.976,-818.069 415.976,-774.919 453.202,-744.408 505.848,-744.408 543.075,-774.919"/>
<polygon fill="none" stroke="white" points="547.076,-773.024 547.076,-819.965 507.278,-852.584 451.773,-852.584 411.975,-819.965 411.975,-773.024 451.773,-740.404 507.278,-740.404 547.076,-773.024"/>
<text text-anchor="middle" x="479.525" y="-815.294" font-family="monospace" font-size="14.00">Barren</text>
<text text-anchor="middle" x="479.525" y="-800.294" font-family="monospace" font-size="14.00">Advanced</text>
<text text-anchor="middle" x="479.525" y="-785.294" font-family="monospace" font-size="14.00">Industry</text>
<text text-anchor="middle" x="479.525" y="-770.294" font-family="monospace" font-size="14.00">Facility</text>
</g>
<!-- 1023548907478 -->
<g id="node15" class="node"><title>1023548907478</title>
<polygon fill="white" stroke="white" points="543.075,-626.829 543.075,-669.98 505.848,-700.491 453.202,-700.491 415.976,-669.98 415.976,-626.829 453.202,-596.318 505.848,-596.318 543.075,-626.829"/>
<polygon fill="none" stroke="white" points="547.076,-624.934 547.076,-671.875 507.278,-704.494 451.773,-704.494 411.975,-671.875 411.975,-624.934 451.773,-592.315 507.278,-592.315 547.076,-624.934"/>
<text text-anchor="middle" x="479.525" y="-667.205" font-family="monospace" font-size="14.00">Barren</text>
<text text-anchor="middle" x="479.525" y="-652.205" font-family="monospace" font-size="14.00">Advanced</text>
<text text-anchor="middle" x="479.525" y="-637.205" font-family="monospace" font-size="14.00">Industry</text>
<text text-anchor="middle" x="479.525" y="-622.205" font-family="monospace" font-size="14.00">Facility</text>
</g>
<!-- 1023548907469&#45;&#45;1023548907478 -->
<g id="edge9" class="edge"><title>1023548907469&#45;&#45;1023548907478</title>
<path fill="none" stroke="white" stroke-width="2" d="M479.525,-740.264C479.525,-728.629 479.525,-716.351 479.525,-704.713"/>
</g>
<!-- 1023548907480 -->
<g id="node17" class="node"><title>1023548907480</title>
<polygon fill="white" stroke="white" points="401.075,-478.74 401.075,-521.89 363.848,-552.401 311.202,-552.401 273.976,-521.89 273.976,-478.74 311.202,-448.228 363.848,-448.228 401.075,-478.74"/>
<polygon fill="none" stroke="white" points="405.076,-476.844 405.076,-523.785 365.278,-556.405 309.773,-556.405 269.975,-523.785 269.975,-476.844 309.773,-444.225 365.278,-444.225 405.076,-476.844"/>
<text text-anchor="middle" x="337.525" y="-519.115" font-family="monospace" font-size="14.00">Barren</text>
<text text-anchor="middle" x="337.525" y="-504.115" font-family="monospace" font-size="14.00">Advanced</text>
<text text-anchor="middle" x="337.525" y="-489.115" font-family="monospace" font-size="14.00">Industry</text>
<text text-anchor="middle" x="337.525" y="-474.115" font-family="monospace" font-size="14.00">Facility</text>
</g>
<!-- 1023548907478&#45;&#45;1023548907480 -->
<g id="edge12" class="edge"><title>1023548907478&#45;&#45;1023548907480</title>
<path fill="none" stroke="white" stroke-width="2" d="M437.305,-603.968C419.156,-585.296 397.987,-563.517 379.828,-544.836"/>
</g>
<!-- 1023548907498 -->
<g id="node19" class="node"><title>1023548907498</title>
<polygon fill="white" stroke="white" points="525.025,-519.315 434.025,-519.315 434.025,-481.315 525.025,-481.315 525.025,-519.315"/>
<text text-anchor="middle" x="479.525" y="-504.115" font-family="monospace" font-size="14.00">Barren</text>
<text text-anchor="middle" x="479.525" y="-489.115" font-family="monospace" font-size="14.00">Launchpad</text>
</g>
<!-- 1023548907478&#45;&#45;1023548907498 -->
<g id="edge13" class="edge"><title>1023548907478&#45;&#45;1023548907498</title>
<path fill="none" stroke="white" stroke-width="2" d="M479.525,-592.174C479.525,-566.479 479.525,-537.653 479.525,-519.496"/>
</g>
<!-- 1023548907470 -->
<g id="node16" class="node"><title>1023548907470</title>
<polygon fill="white" stroke="white" points="390.075,-626.829 390.075,-669.98 352.848,-700.491 300.202,-700.491 262.976,-669.98 262.976,-626.829 300.202,-596.318 352.848,-596.318 390.075,-626.829"/>
<polygon fill="none" stroke="white" points="394.076,-624.934 394.076,-671.875 354.278,-704.494 298.773,-704.494 258.975,-671.875 258.975,-624.934 298.773,-592.315 354.278,-592.315 394.076,-624.934"/>
<text text-anchor="middle" x="326.525" y="-667.205" font-family="monospace" font-size="14.00">Barren</text>
<text text-anchor="middle" x="326.525" y="-652.205" font-family="monospace" font-size="14.00">Advanced</text>
<text text-anchor="middle" x="326.525" y="-637.205" font-family="monospace" font-size="14.00">Industry</text>
<text text-anchor="middle" x="326.525" y="-622.205" font-family="monospace" font-size="14.00">Facility</text>
</g>
<!-- 1023548907470&#45;&#45;1023548907480 -->
<g id="edge10" class="edge"><title>1023548907470&#45;&#45;1023548907480</title>
<path fill="none" stroke="white" stroke-width="2" d="M330.684,-592.174C331.56,-580.539 332.485,-568.261 333.361,-556.623"/>
</g>
<!-- 1023548907491&#45;&#45;1023548907498 -->
<g id="edge14" class="edge"><title>1023548907491&#45;&#45;1023548907498</title>
<path fill="none" stroke="white" stroke-width="2" d="M683.487,-629.198C638.716,-601.126 553.333,-547.592 508.563,-519.521"/>
</g>
<!-- 1023548907505 -->
<g id="node20" class="node"><title>1023548907505</title>
<polygon fill="white" stroke="white" points="754.025,-526.815 671.025,-526.815 671.025,-473.815 754.025,-473.815 754.025,-526.815"/>
<text text-anchor="middle" x="712.525" y="-511.615" font-family="monospace" font-size="14.00">Barren</text>
<text text-anchor="middle" x="712.525" y="-496.615" font-family="monospace" font-size="14.00">Storage</text>
<text text-anchor="middle" x="712.525" y="-481.615" font-family="monospace" font-size="14.00">Facility</text>
</g>
<!-- 1023548907491&#45;&#45;1023548907505 -->
<g id="edge15" class="edge"><title>1023548907491&#45;&#45;1023548907505</title>
<path fill="none" stroke="white" stroke-width="2" d="M712.525,-629.198C712.525,-603.421 712.525,-556.174 712.525,-526.888"/>
</g>
<!-- 1023548907534 -->
<g id="node21" class="node"><title>1023548907534</title>
<polygon fill="white" stroke="white" points="992.075,-478.74 992.075,-521.89 954.848,-552.401 902.202,-552.401 864.976,-521.89 864.976,-478.74 902.202,-448.228 954.848,-448.228 992.075,-478.74"/>
<polygon fill="none" stroke="white" points="996.076,-476.844 996.076,-523.785 956.278,-556.405 900.773,-556.405 860.975,-523.785 860.975,-476.844 900.773,-444.225 956.278,-444.225 996.076,-476.844"/>
<text text-anchor="middle" x="928.525" y="-519.115" font-family="monospace" font-size="14.00">Barren</text>
<text text-anchor="middle" x="928.525" y="-504.115" font-family="monospace" font-size="14.00">Advanced</text>
<text text-anchor="middle" x="928.525" y="-489.115" font-family="monospace" font-size="14.00">Industry</text>
<text text-anchor="middle" x="928.525" y="-474.115" font-family="monospace" font-size="14.00">Facility</text>
</g>
<!-- 1023548907491&#45;&#45;1023548907534 -->
<g id="edge16" class="edge"><title>1023548907491&#45;&#45;1023548907534</title>
<path fill="none" stroke="white" stroke-width="2" d="M739.445,-629.198C773.599,-606.098 833.246,-565.756 876.429,-536.549"/>
</g>
<!-- 1023548907498&#45;&#45;1023548907568 -->
<g id="edge17" class="edge"><title>1023548907498&#45;&#45;1023548907568</title>
<path fill="none" stroke="white" stroke-width="2" d="M468.433,-481.108C452.73,-455.331 423.947,-408.084 406.105,-378.798"/>
</g>
<!-- 1023548907505&#45;&#45;1023548907543 -->
<g id="edge18" class="edge"><title>1023548907505&#45;&#45;1023548907543</title>
<path fill="none" stroke="white" stroke-width="2" d="M739.527,-473.533C762.175,-451.908 794.966,-420.597 821.419,-395.339"/>
</g>
<!-- 1023548907505&#45;&#45;1023548907568 -->
<g id="edge19" class="edge"><title>1023548907505&#45;&#45;1023548907568</title>
<path fill="none" stroke="white" stroke-width="2" d="M671.021,-486.418C608.863,-466.781 494.9,-429.439 457.525,-408.27 443.248,-400.183 428.982,-389.003 417.306,-378.831"/>
</g>
<!-- 1023548907513 -->
<g id="node22" class="node"><title>1023548907513</title>
<polygon fill="white" stroke="white" points="776.075,-330.65 776.075,-373.8 738.848,-404.311 686.202,-404.311 648.976,-373.8 648.976,-330.65 686.202,-300.138 738.848,-300.138 776.075,-330.65"/>
<polygon fill="none" stroke="white" points="780.076,-328.754 780.076,-375.695 740.278,-408.315 684.773,-408.315 644.975,-375.695 644.975,-328.754 684.773,-296.135 740.278,-296.135 780.076,-328.754"/>
<text text-anchor="middle" x="712.525" y="-371.025" font-family="monospace" font-size="14.00">Barren</text>
<text text-anchor="middle" x="712.525" y="-356.025" font-family="monospace" font-size="14.00">Advanced</text>
<text text-anchor="middle" x="712.525" y="-341.025" font-family="monospace" font-size="14.00">Industry</text>
<text text-anchor="middle" x="712.525" y="-326.025" font-family="monospace" font-size="14.00">Facility</text>
</g>
<!-- 1023548907505&#45;&#45;1023548907513 -->
<g id="edge20" class="edge"><title>1023548907505&#45;&#45;1023548907513</title>
<path fill="none" stroke="white" stroke-width="2" d="M712.525,-473.533C712.525,-455.512 712.525,-430.765 712.525,-408.4"/>
</g>
<!-- 1023548907534&#45;&#45;1023548907549 -->
<g id="edge25" class="edge"><title>1023548907534&#45;&#45;1023548907549</title>
<path fill="none" stroke="white" stroke-width="2" d="M960.509,-447.397C968.998,-433.619 978.162,-418.744 986.644,-404.975"/>
</g>
<!-- 1023548907531 -->
<g id="node25" class="node"><title>1023548907531</title>
<polygon fill="white" stroke="white" points="776.075,-182.56 776.075,-225.71 738.848,-256.222 686.202,-256.222 648.976,-225.71 648.976,-182.56 686.202,-152.048 738.848,-152.048 776.075,-182.56"/>
<polygon fill="none" stroke="white" points="780.076,-180.664 780.076,-227.605 740.278,-260.225 684.773,-260.225 644.975,-227.605 644.975,-180.664 684.773,-148.045 740.278,-148.045 780.076,-180.664"/>
<text text-anchor="middle" x="712.525" y="-222.935" font-family="monospace" font-size="14.00">Barren</text>
<text text-anchor="middle" x="712.525" y="-207.935" font-family="monospace" font-size="14.00">Advanced</text>
<text text-anchor="middle" x="712.525" y="-192.935" font-family="monospace" font-size="14.00">Industry</text>
<text text-anchor="middle" x="712.525" y="-177.935" font-family="monospace" font-size="14.00">Facility</text>
</g>
<!-- 1023548907513&#45;&#45;1023548907531 -->
<g id="edge23" class="edge"><title>1023548907513&#45;&#45;1023548907531</title>
<path fill="none" stroke="white" stroke-width="2" d="M712.525,-295.994C712.525,-284.359 712.525,-272.081 712.525,-260.443"/>
</g>
<!-- 1023548907510 -->
<g id="node23" class="node"><title>1023548907510</title>
<polygon fill="white" stroke="white" points="131.075,-330.65 131.075,-373.8 93.8485,-404.311 41.2024,-404.311 3.97605,-373.8 3.97605,-330.65 41.2024,-300.138 93.8485,-300.138 131.075,-330.65"/>
<polygon fill="none" stroke="white" points="135.076,-328.754 135.076,-375.695 95.2783,-408.315 39.7726,-408.315 -0.0254594,-375.695 -0.0254594,-328.754 39.7726,-296.135 95.2783,-296.135 135.076,-328.754"/>
<text text-anchor="middle" x="67.5254" y="-371.025" font-family="monospace" font-size="14.00">Barren</text>
<text text-anchor="middle" x="67.5254" y="-356.025" font-family="monospace" font-size="14.00">Advanced</text>
<text text-anchor="middle" x="67.5254" y="-341.025" font-family="monospace" font-size="14.00">Industry</text>
<text text-anchor="middle" x="67.5254" y="-326.025" font-family="monospace" font-size="14.00">Facility</text>
</g>
<!-- 1023548907510&#45;&#45;1023548907575 -->
<g id="edge21" class="edge"><title>1023548907510&#45;&#45;1023548907575</title>
<path fill="none" stroke="white" stroke-width="2" d="M111.779,-308.969C132.166,-289.503 156.293,-266.466 176.635,-247.043"/>
</g>
<!-- 1023548907518 -->
<g id="node24" class="node"><title>1023548907518</title>
<polygon fill="white" stroke="white" points="131.075,-182.56 131.075,-225.71 93.8485,-256.222 41.2024,-256.222 3.97605,-225.71 3.97605,-182.56 41.2024,-152.048 93.8485,-152.048 131.075,-182.56"/>
<polygon fill="none" stroke="white" points="135.076,-180.664 135.076,-227.605 95.2783,-260.225 39.7726,-260.225 -0.0254594,-227.605 -0.0254594,-180.664 39.7726,-148.045 95.2783,-148.045 135.076,-180.664"/>
<text text-anchor="middle" x="67.5254" y="-222.935" font-family="monospace" font-size="14.00">Barren</text>
<text text-anchor="middle" x="67.5254" y="-207.935" font-family="monospace" font-size="14.00">Advanced</text>
<text text-anchor="middle" x="67.5254" y="-192.935" font-family="monospace" font-size="14.00">Industry</text>
<text text-anchor="middle" x="67.5254" y="-177.935" font-family="monospace" font-size="14.00">Facility</text>
</g>
<!-- 1023548907510&#45;&#45;1023548907518 -->
<g id="edge22" class="edge"><title>1023548907510&#45;&#45;1023548907518</title>
<path fill="none" stroke="white" stroke-width="2" d="M67.5254,-295.994C67.5254,-284.359 67.5254,-272.081 67.5254,-260.443"/>
</g>
<!-- 1023548907523 -->
<g id="node26" class="node"><title>1023548907523</title>
<polygon fill="white" stroke="white" points="284.075,-330.65 284.075,-373.8 246.848,-404.311 194.202,-404.311 156.976,-373.8 156.976,-330.65 194.202,-300.138 246.848,-300.138 284.075,-330.65"/>
<polygon fill="none" stroke="white" points="288.076,-328.754 288.076,-375.695 248.278,-408.315 192.773,-408.315 152.975,-375.695 152.975,-328.754 192.773,-296.135 248.278,-296.135 288.076,-328.754"/>
<text text-anchor="middle" x="220.525" y="-371.025" font-family="monospace" font-size="14.00">Barren</text>
<text text-anchor="middle" x="220.525" y="-356.025" font-family="monospace" font-size="14.00">Advanced</text>
<text text-anchor="middle" x="220.525" y="-341.025" font-family="monospace" font-size="14.00">Industry</text>
<text text-anchor="middle" x="220.525" y="-326.025" font-family="monospace" font-size="14.00">Facility</text>
</g>
<!-- 1023548907523&#45;&#45;1023548907575 -->
<g id="edge24" class="edge"><title>1023548907523&#45;&#45;1023548907575</title>
<path fill="none" stroke="white" stroke-width="2" d="M220.525,-295.994C220.525,-284.359 220.525,-272.081 220.525,-260.443"/>
</g>
</g>
</svg>
