<?xml version="1.0" encoding="UTF-8" standalone="no"?>
<!DOCTYPE svg PUBLIC "-//W3C//DTD SVG 1.1//EN"
 "http://www.w3.org/Graphics/SVG/1.1/DTD/svg11.dtd">
<!-- Generated by graphviz version 2.38.0 (20140413.2041)
 -->
<!-- Title: %3 Pages: 1 -->
<svg width="3558pt" height="963pt"
 viewBox="0.00 0.00 3557.93 963.45" xmlns="http://www.w3.org/2000/svg" xmlns:xlink="http://www.w3.org/1999/xlink">
<g id="graph0" class="graph" transform="scale(1 1) rotate(0) translate(4 959.449)">
<title>%3</title>
<polygon fill="#404040" stroke="none" points="-4,4 -4,-959.449 3553.93,-959.449 3553.93,4 -4,4"/>
<!-- 1023548907543 -->
<g id="node1" class="node"><title>1023548907543</title>
<polygon fill="white" stroke="white" points="817.484,-788.829 817.484,-831.98 780.258,-862.491 727.611,-862.491 690.385,-831.98 690.385,-788.829 727.611,-758.318 780.258,-758.318 817.484,-788.829"/>
<polygon fill="none" stroke="white" points="821.485,-786.934 821.485,-833.875 781.687,-866.494 726.182,-866.494 686.384,-833.875 686.384,-786.934 726.182,-754.315 781.687,-754.315 821.485,-786.934"/>
<text text-anchor="middle" x="753.935" y="-829.205" font-family="monospace" font-size="14.00">Barren</text>
<text text-anchor="middle" x="753.935" y="-814.205" font-family="monospace" font-size="14.00">Advanced</text>
<text text-anchor="middle" x="753.935" y="-799.205" font-family="monospace" font-size="14.00">Industry</text>
<text text-anchor="middle" x="753.935" y="-784.205" font-family="monospace" font-size="14.00">Facility</text>
</g>
<!-- 1023548907549 -->
<g id="node2" class="node"><title>1023548907549</title>
<polygon fill="white" stroke="white" points="970.484,-788.829 970.484,-831.98 933.258,-862.491 880.611,-862.491 843.385,-831.98 843.385,-788.829 880.611,-758.318 933.258,-758.318 970.484,-788.829"/>
<polygon fill="none" stroke="white" points="974.485,-786.934 974.485,-833.875 934.687,-866.494 879.182,-866.494 839.384,-833.875 839.384,-786.934 879.182,-754.315 934.687,-754.315 974.485,-786.934"/>
<text text-anchor="middle" x="906.935" y="-829.205" font-family="monospace" font-size="14.00">Barren</text>
<text text-anchor="middle" x="906.935" y="-814.205" font-family="monospace" font-size="14.00">Advanced</text>
<text text-anchor="middle" x="906.935" y="-799.205" font-family="monospace" font-size="14.00">Industry</text>
<text text-anchor="middle" x="906.935" y="-784.205" font-family="monospace" font-size="14.00">Facility</text>
</g>
<!-- 1023548907543&#45;&gt;1023548907549 -->
<!-- 1023548907575 -->
<g id="node7" class="node"><title>1023548907575</title>
<polygon fill="white" stroke="white" points="817.484,-640.74 817.484,-683.89 780.258,-714.401 727.611,-714.401 690.385,-683.89 690.385,-640.74 727.611,-610.228 780.258,-610.228 817.484,-640.74"/>
<polygon fill="none" stroke="white" points="821.485,-638.844 821.485,-685.785 781.687,-718.405 726.182,-718.405 686.384,-685.785 686.384,-638.844 726.182,-606.225 781.687,-606.225 821.485,-638.844"/>
<text text-anchor="middle" x="753.935" y="-681.115" font-family="monospace" font-size="14.00">Barren</text>
<text text-anchor="middle" x="753.935" y="-666.115" font-family="monospace" font-size="14.00">Advanced</text>
<text text-anchor="middle" x="753.935" y="-651.115" font-family="monospace" font-size="14.00">Industry</text>
<text text-anchor="middle" x="753.935" y="-636.115" font-family="monospace" font-size="14.00">Facility</text>
</g>
<!-- 1023548907543&#45;&gt;1023548907575 -->
<!-- 1023548907505 -->
<g id="node29" class="node"><title>1023548907505</title>
<polygon fill="white" stroke="white" points="1590.43,-422.18 1507.43,-422.18 1507.43,-369.18 1590.43,-369.18 1590.43,-422.18"/>
<text text-anchor="middle" x="1548.93" y="-406.98" font-family="monospace" font-size="14.00">Barren</text>
<text text-anchor="middle" x="1548.93" y="-391.98" font-family="monospace" font-size="14.00">Storage</text>
<text text-anchor="middle" x="1548.93" y="-376.98" font-family="monospace" font-size="14.00">Facility</text>
</g>
<!-- 1023548907543&#45;&gt;1023548907505 -->
<g id="edge12" class="edge"><title>1023548907543&#45;&gt;1023548907505</title>
<path fill="none" stroke="#dbdb8d" stroke-width="2" d="M801.636,-770.547C810.66,-764.47 820.301,-758.757 829.935,-754.36 893.877,-725.17 932.895,-766.688 983.935,-718.36 1071.41,-635.531 968.252,-536.325 1059.93,-458.18 1124.82,-402.876 1385,-396.406 1497.11,-396.254"/>
<polygon fill="#dbdb8d" stroke="#dbdb8d" stroke-width="2" points="1497.17,-399.754 1507.17,-396.257 1497.17,-392.754 1497.17,-399.754"/>
</g>
<!-- 1023548907558 -->
<g id="node3" class="node"><title>1023548907558</title>
<polygon fill="white" stroke="white" points="1181.48,-788.829 1181.48,-831.98 1144.26,-862.491 1091.61,-862.491 1054.39,-831.98 1054.39,-788.829 1091.61,-758.318 1144.26,-758.318 1181.48,-788.829"/>
<polygon fill="none" stroke="white" points="1185.49,-786.934 1185.49,-833.875 1145.69,-866.494 1090.18,-866.494 1050.38,-833.875 1050.38,-786.934 1090.18,-754.315 1145.69,-754.315 1185.49,-786.934"/>
<text text-anchor="middle" x="1117.93" y="-829.205" font-family="monospace" font-size="14.00">Barren</text>
<text text-anchor="middle" x="1117.93" y="-814.205" font-family="monospace" font-size="14.00">Advanced</text>
<text text-anchor="middle" x="1117.93" y="-799.205" font-family="monospace" font-size="14.00">Industry</text>
<text text-anchor="middle" x="1117.93" y="-784.205" font-family="monospace" font-size="14.00">Facility</text>
</g>
<!-- 1023548907549&#45;&gt;1023548907558 -->
<!-- 1023548907510 -->
<g id="node8" class="node"><title>1023548907510</title>
<polygon fill="white" stroke="white" points="970.484,-640.74 970.484,-683.89 933.258,-714.401 880.611,-714.401 843.385,-683.89 843.385,-640.74 880.611,-610.228 933.258,-610.228 970.484,-640.74"/>
<polygon fill="none" stroke="white" points="974.485,-638.844 974.485,-685.785 934.687,-718.405 879.182,-718.405 839.384,-685.785 839.384,-638.844 879.182,-606.225 934.687,-606.225 974.485,-638.844"/>
<text text-anchor="middle" x="906.935" y="-681.115" font-family="monospace" font-size="14.00">Barren</text>
<text text-anchor="middle" x="906.935" y="-666.115" font-family="monospace" font-size="14.00">Advanced</text>
<text text-anchor="middle" x="906.935" y="-651.115" font-family="monospace" font-size="14.00">Industry</text>
<text text-anchor="middle" x="906.935" y="-636.115" font-family="monospace" font-size="14.00">Facility</text>
</g>
<!-- 1023548907549&#45;&gt;1023548907510 -->
<!-- 1023548907549&#45;&gt;1023548907505 -->
<g id="edge14" class="edge"><title>1023548907549&#45;&gt;1023548907505</title>
<path fill="none" stroke="#dbdb8d" stroke-width="2" d="M971.905,-784.505C1001.81,-769.744 1035,-748.033 1054.93,-718.36 1120.29,-621.071 1013.9,-539.876 1097.93,-458.18 1153.73,-403.939 1390.59,-396.756 1496.91,-396.329"/>
<polygon fill="#dbdb8d" stroke="#dbdb8d" stroke-width="2" points="1497.09,-399.828 1507.09,-396.307 1497.08,-392.828 1497.09,-399.828"/>
</g>
<!-- 1023548907565 -->
<g id="node4" class="node"><title>1023548907565</title>
<polygon fill="white" stroke="white" points="1391.48,-788.829 1391.48,-831.98 1354.26,-862.491 1301.61,-862.491 1264.39,-831.98 1264.39,-788.829 1301.61,-758.318 1354.26,-758.318 1391.48,-788.829"/>
<polygon fill="none" stroke="white" points="1395.49,-786.934 1395.49,-833.875 1355.69,-866.494 1300.18,-866.494 1260.38,-833.875 1260.38,-786.934 1300.18,-754.315 1355.69,-754.315 1395.49,-786.934"/>
<text text-anchor="middle" x="1327.93" y="-829.205" font-family="monospace" font-size="14.00">Barren</text>
<text text-anchor="middle" x="1327.93" y="-814.205" font-family="monospace" font-size="14.00">Advanced</text>
<text text-anchor="middle" x="1327.93" y="-799.205" font-family="monospace" font-size="14.00">Industry</text>
<text text-anchor="middle" x="1327.93" y="-784.205" font-family="monospace" font-size="14.00">Facility</text>
</g>
<!-- 1023548907558&#45;&gt;1023548907565 -->
<!-- 1023548907513 -->
<g id="node9" class="node"><title>1023548907513</title>
<polygon fill="white" stroke="white" points="1238.48,-640.74 1238.48,-683.89 1201.26,-714.401 1148.61,-714.401 1111.39,-683.89 1111.39,-640.74 1148.61,-610.228 1201.26,-610.228 1238.48,-640.74"/>
<polygon fill="none" stroke="white" points="1242.49,-638.844 1242.49,-685.785 1202.69,-718.405 1147.18,-718.405 1107.38,-685.785 1107.38,-638.844 1147.18,-606.225 1202.69,-606.225 1242.49,-638.844"/>
<text text-anchor="middle" x="1174.93" y="-681.115" font-family="monospace" font-size="14.00">Barren</text>
<text text-anchor="middle" x="1174.93" y="-666.115" font-family="monospace" font-size="14.00">Advanced</text>
<text text-anchor="middle" x="1174.93" y="-651.115" font-family="monospace" font-size="14.00">Industry</text>
<text text-anchor="middle" x="1174.93" y="-636.115" font-family="monospace" font-size="14.00">Facility</text>
</g>
<!-- 1023548907558&#45;&gt;1023548907513 -->
<!-- 1023548907568 -->
<g id="node30" class="node"><title>1023548907568</title>
<polygon fill="white" stroke="white" points="1556.43,-193.09 1473.43,-193.09 1473.43,-140.09 1556.43,-140.09 1556.43,-193.09"/>
<text text-anchor="middle" x="1514.93" y="-177.89" font-family="monospace" font-size="14.00">Barren</text>
<text text-anchor="middle" x="1514.93" y="-162.89" font-family="monospace" font-size="14.00">Storage</text>
<text text-anchor="middle" x="1514.93" y="-147.89" font-family="monospace" font-size="14.00">Facility</text>
</g>
<!-- 1023548907558&#45;&gt;1023548907568 -->
<g id="edge17" class="edge"><title>1023548907558&#45;&gt;1023548907568</title>
<path fill="none" stroke="#dbdb8d" stroke-width="2" d="M1084.67,-758.614C1050.71,-701.759 1002.93,-605.705 1002.93,-515.225 1002.93,-515.225 1002.93,-515.225 1002.93,-394.68 1002.93,-194.914 1332.65,-169.524 1462.9,-167.288"/>
<polygon fill="#dbdb8d" stroke="#dbdb8d" stroke-width="2" points="1463.08,-170.786 1473.04,-167.154 1462.99,-163.787 1463.08,-170.786"/>
</g>
<!-- 1023548907601 -->
<g id="node5" class="node"><title>1023548907601</title>
<polygon fill="white" stroke="white" points="1713.48,-788.829 1713.48,-831.98 1676.26,-862.491 1623.61,-862.491 1586.39,-831.98 1586.39,-788.829 1623.61,-758.318 1676.26,-758.318 1713.48,-788.829"/>
<polygon fill="none" stroke="white" points="1717.49,-786.934 1717.49,-833.875 1677.69,-866.494 1622.18,-866.494 1582.38,-833.875 1582.38,-786.934 1622.18,-754.315 1677.69,-754.315 1717.49,-786.934"/>
<text text-anchor="middle" x="1649.93" y="-829.205" font-family="monospace" font-size="14.00">Barren</text>
<text text-anchor="middle" x="1649.93" y="-814.205" font-family="monospace" font-size="14.00">Advanced</text>
<text text-anchor="middle" x="1649.93" y="-799.205" font-family="monospace" font-size="14.00">Industry</text>
<text text-anchor="middle" x="1649.93" y="-784.205" font-family="monospace" font-size="14.00">Facility</text>
</g>
<!-- 1023548907565&#45;&gt;1023548907601 -->
<!-- 1023548907518 -->
<g id="node10" class="node"><title>1023548907518</title>
<polygon fill="white" stroke="white" points="1391.48,-640.74 1391.48,-683.89 1354.26,-714.401 1301.61,-714.401 1264.39,-683.89 1264.39,-640.74 1301.61,-610.228 1354.26,-610.228 1391.48,-640.74"/>
<polygon fill="none" stroke="white" points="1395.49,-638.844 1395.49,-685.785 1355.69,-718.405 1300.18,-718.405 1260.38,-685.785 1260.38,-638.844 1300.18,-606.225 1355.69,-606.225 1395.49,-638.844"/>
<text text-anchor="middle" x="1327.93" y="-681.115" font-family="monospace" font-size="14.00">Barren</text>
<text text-anchor="middle" x="1327.93" y="-666.115" font-family="monospace" font-size="14.00">Advanced</text>
<text text-anchor="middle" x="1327.93" y="-651.115" font-family="monospace" font-size="14.00">Industry</text>
<text text-anchor="middle" x="1327.93" y="-636.115" font-family="monospace" font-size="14.00">Facility</text>
</g>
<!-- 1023548907565&#45;&gt;1023548907518 -->
<!-- 1023548907565&#45;&gt;1023548907568 -->
<g id="edge19" class="edge"><title>1023548907565&#45;&gt;1023548907568</title>
<path fill="none" stroke="#dbdb8d" stroke-width="2" d="M1395.59,-792.884C1444.12,-778.708 1509.25,-754.729 1557.93,-718.36 1624.91,-668.322 1646.67,-649.304 1673.93,-570.27 1690.18,-523.176 1681.8,-507.373 1673.93,-458.18 1664.71,-400.445 1650.88,-388.825 1632.93,-333.18 1618.04,-286.991 1628.36,-268.426 1599.93,-229.09 1590.66,-216.253 1577.88,-205.041 1565.04,-195.831"/>
<polygon fill="#dbdb8d" stroke="#dbdb8d" stroke-width="2" points="1566.86,-192.837 1556.64,-190.071 1562.91,-198.611 1566.86,-192.837"/>
</g>
<!-- 1023548907534 -->
<g id="node6" class="node"><title>1023548907534</title>
<polygon fill="white" stroke="white" points="2035.48,-788.829 2035.48,-831.98 1998.26,-862.491 1945.61,-862.491 1908.39,-831.98 1908.39,-788.829 1945.61,-758.318 1998.26,-758.318 2035.48,-788.829"/>
<polygon fill="none" stroke="white" points="2039.49,-786.934 2039.49,-833.875 1999.69,-866.494 1944.18,-866.494 1904.38,-833.875 1904.38,-786.934 1944.18,-754.315 1999.69,-754.315 2039.49,-786.934"/>
<text text-anchor="middle" x="1971.93" y="-829.205" font-family="monospace" font-size="14.00">Barren</text>
<text text-anchor="middle" x="1971.93" y="-814.205" font-family="monospace" font-size="14.00">Advanced</text>
<text text-anchor="middle" x="1971.93" y="-799.205" font-family="monospace" font-size="14.00">Industry</text>
<text text-anchor="middle" x="1971.93" y="-784.205" font-family="monospace" font-size="14.00">Facility</text>
</g>
<!-- 1023548907601&#45;&gt;1023548907534 -->
<!-- 1023548907523 -->
<g id="node11" class="node"><title>1023548907523</title>
<polygon fill="white" stroke="white" points="1544.48,-640.74 1544.48,-683.89 1507.26,-714.401 1454.61,-714.401 1417.39,-683.89 1417.39,-640.74 1454.61,-610.228 1507.26,-610.228 1544.48,-640.74"/>
<polygon fill="none" stroke="white" points="1548.49,-638.844 1548.49,-685.785 1508.69,-718.405 1453.18,-718.405 1413.38,-685.785 1413.38,-638.844 1453.18,-606.225 1508.69,-606.225 1548.49,-638.844"/>
<text text-anchor="middle" x="1480.93" y="-681.115" font-family="monospace" font-size="14.00">Barren</text>
<text text-anchor="middle" x="1480.93" y="-666.115" font-family="monospace" font-size="14.00">Advanced</text>
<text text-anchor="middle" x="1480.93" y="-651.115" font-family="monospace" font-size="14.00">Industry</text>
<text text-anchor="middle" x="1480.93" y="-636.115" font-family="monospace" font-size="14.00">Facility</text>
</g>
<!-- 1023548907601&#45;&gt;1023548907523 -->
<!-- 1023548907601&#45;&gt;1023548907568 -->
<g id="edge143" class="edge"><title>1023548907601&#45;&gt;1023548907568</title>
<path fill="none" stroke="#dbdb8d" stroke-width="2" d="M1706.08,-777.277C1726.69,-762.269 1747.71,-742.369 1758.93,-718.36 1807.92,-613.613 1793.85,-568.419 1758.93,-458.18 1738.42,-393.408 1702.41,-393.39 1670.93,-333.18 1648.12,-289.536 1665.42,-266.109 1632.93,-229.09 1615.12,-208.791 1588.98,-194.207 1565.82,-184.351"/>
<polygon fill="#dbdb8d" stroke="#dbdb8d" stroke-width="2" points="1567.03,-181.065 1556.45,-180.544 1564.39,-187.55 1567.03,-181.065"/>
</g>
<!-- 1023548907531 -->
<g id="node12" class="node"><title>1023548907531</title>
<polygon fill="white" stroke="white" points="2092.48,-640.74 2092.48,-683.89 2055.26,-714.401 2002.61,-714.401 1965.39,-683.89 1965.39,-640.74 2002.61,-610.228 2055.26,-610.228 2092.48,-640.74"/>
<polygon fill="none" stroke="white" points="2096.49,-638.844 2096.49,-685.785 2056.69,-718.405 2001.18,-718.405 1961.38,-685.785 1961.38,-638.844 2001.18,-606.225 2056.69,-606.225 2096.49,-638.844"/>
<text text-anchor="middle" x="2028.93" y="-681.115" font-family="monospace" font-size="14.00">Barren</text>
<text text-anchor="middle" x="2028.93" y="-666.115" font-family="monospace" font-size="14.00">Advanced</text>
<text text-anchor="middle" x="2028.93" y="-651.115" font-family="monospace" font-size="14.00">Industry</text>
<text text-anchor="middle" x="2028.93" y="-636.115" font-family="monospace" font-size="14.00">Facility</text>
</g>
<!-- 1023548907534&#45;&gt;1023548907531 -->
<!-- 1023548907534&#45;&gt;1023548907505 -->
<g id="edge146" class="edge"><title>1023548907534&#45;&gt;1023548907505</title>
<path fill="none" stroke="#dbdb8d" stroke-width="2" d="M1921.7,-772.023C1866.33,-728.667 1777.62,-652.542 1720.93,-570.27 1690.28,-525.787 1710.97,-497.51 1673.93,-458.18 1654.03,-437.038 1625.3,-422.2 1600.4,-412.403"/>
<polygon fill="#dbdb8d" stroke="#dbdb8d" stroke-width="2" points="1601.31,-409.006 1590.72,-408.765 1598.85,-415.558 1601.31,-409.006"/>
</g>
<!-- 1023548907575&#45;&gt;1023548907510 -->
<!-- 1023548907467 -->
<g id="node13" class="node"><title>1023548907467</title>
<polygon fill="white" stroke="white" points="779.484,-492.65 779.484,-535.8 742.258,-566.311 689.611,-566.311 652.385,-535.8 652.385,-492.65 689.611,-462.138 742.258,-462.138 779.484,-492.65"/>
<polygon fill="none" stroke="white" points="783.485,-490.754 783.485,-537.695 743.687,-570.315 688.182,-570.315 648.384,-537.695 648.384,-490.754 688.182,-458.135 743.687,-458.135 783.485,-490.754"/>
<text text-anchor="middle" x="715.935" y="-533.025" font-family="monospace" font-size="14.00">Barren</text>
<text text-anchor="middle" x="715.935" y="-518.025" font-family="monospace" font-size="14.00">Advanced</text>
<text text-anchor="middle" x="715.935" y="-503.025" font-family="monospace" font-size="14.00">Industry</text>
<text text-anchor="middle" x="715.935" y="-488.025" font-family="monospace" font-size="14.00">Facility</text>
</g>
<!-- 1023548907575&#45;&gt;1023548907467 -->
<!-- 1023548907575&#45;&gt;1023548907568 -->
<g id="edge31" class="edge"><title>1023548907575&#45;&gt;1023548907568</title>
<path fill="none" stroke="#17becf" stroke-width="2" d="M695.985,-630.653C673.872,-615.656 651.077,-595.371 638.935,-570.27 617.24,-525.424 619.101,-503.879 638.935,-458.18 698.285,-321.428 748.09,-290.49 883.935,-229.09 986.959,-182.524 1330.99,-171.09 1462.87,-168.39"/>
<polygon fill="#17becf" stroke="#17becf" stroke-width="2" points="1463.18,-171.885 1473.11,-168.189 1463.04,-164.886 1463.18,-171.885"/>
</g>
<!-- 1023548907510&#45;&gt;1023548907513 -->
<!-- 1023548907469 -->
<g id="node14" class="node"><title>1023548907469</title>
<polygon fill="white" stroke="white" points="932.484,-492.65 932.484,-535.8 895.258,-566.311 842.611,-566.311 805.385,-535.8 805.385,-492.65 842.611,-462.138 895.258,-462.138 932.484,-492.65"/>
<polygon fill="none" stroke="white" points="936.485,-490.754 936.485,-537.695 896.687,-570.315 841.182,-570.315 801.384,-537.695 801.384,-490.754 841.182,-458.135 896.687,-458.135 936.485,-490.754"/>
<text text-anchor="middle" x="868.935" y="-533.025" font-family="monospace" font-size="14.00">Barren</text>
<text text-anchor="middle" x="868.935" y="-518.025" font-family="monospace" font-size="14.00">Advanced</text>
<text text-anchor="middle" x="868.935" y="-503.025" font-family="monospace" font-size="14.00">Industry</text>
<text text-anchor="middle" x="868.935" y="-488.025" font-family="monospace" font-size="14.00">Facility</text>
</g>
<!-- 1023548907510&#45;&gt;1023548907469 -->
<!-- 1023548907510&#45;&gt;1023548907568 -->
<g id="edge129" class="edge"><title>1023548907510&#45;&gt;1023548907568</title>
<path fill="none" stroke="#17becf" stroke-width="2" d="M933.588,-605.854C938.312,-594.302 942.736,-582.052 945.935,-570.27 985.97,-422.771 880.38,-336.674 988.935,-229.09 1022.28,-196.041 1337.27,-176.578 1463.24,-170.061"/>
<polygon fill="#17becf" stroke="#17becf" stroke-width="2" points="1463.6,-173.548 1473.41,-169.542 1463.24,-166.557 1463.6,-173.548"/>
</g>
<!-- 1023548907513&#45;&gt;1023548907518 -->
<!-- 1023548907470 -->
<g id="node15" class="node"><title>1023548907470</title>
<polygon fill="white" stroke="white" points="1238.48,-492.65 1238.48,-535.8 1201.26,-566.311 1148.61,-566.311 1111.39,-535.8 1111.39,-492.65 1148.61,-462.138 1201.26,-462.138 1238.48,-492.65"/>
<polygon fill="none" stroke="white" points="1242.49,-490.754 1242.49,-537.695 1202.69,-570.315 1147.18,-570.315 1107.38,-537.695 1107.38,-490.754 1147.18,-458.135 1202.69,-458.135 1242.49,-490.754"/>
<text text-anchor="middle" x="1174.93" y="-533.025" font-family="monospace" font-size="14.00">Barren</text>
<text text-anchor="middle" x="1174.93" y="-518.025" font-family="monospace" font-size="14.00">Advanced</text>
<text text-anchor="middle" x="1174.93" y="-503.025" font-family="monospace" font-size="14.00">Industry</text>
<text text-anchor="middle" x="1174.93" y="-488.025" font-family="monospace" font-size="14.00">Facility</text>
</g>
<!-- 1023548907513&#45;&gt;1023548907470 -->
<!-- 1023548907513&#45;&gt;1023548907505 -->
<g id="edge133" class="edge"><title>1023548907513&#45;&gt;1023548907505</title>
<path fill="none" stroke="#17becf" stroke-width="2" d="M1215.08,-615.776C1227.24,-601.47 1240.42,-585.444 1251.93,-570.27 1288.31,-522.315 1279.06,-493.308 1327.93,-458.18 1378.4,-421.908 1449.46,-407.005 1497.25,-400.896"/>
<polygon fill="#17becf" stroke="#17becf" stroke-width="2" points="1497.87,-404.348 1507.38,-399.689 1497.04,-397.398 1497.87,-404.348"/>
</g>
<!-- 1023548907518&#45;&gt;1023548907523 -->
<!-- 1023548907473 -->
<g id="node16" class="node"><title>1023548907473</title>
<polygon fill="white" stroke="white" points="1468.48,-492.65 1468.48,-535.8 1431.26,-566.311 1378.61,-566.311 1341.39,-535.8 1341.39,-492.65 1378.61,-462.138 1431.26,-462.138 1468.48,-492.65"/>
<polygon fill="none" stroke="white" points="1472.49,-490.754 1472.49,-537.695 1432.69,-570.315 1377.18,-570.315 1337.38,-537.695 1337.38,-490.754 1377.18,-458.135 1432.69,-458.135 1472.49,-490.754"/>
<text text-anchor="middle" x="1404.93" y="-533.025" font-family="monospace" font-size="14.00">Barren</text>
<text text-anchor="middle" x="1404.93" y="-518.025" font-family="monospace" font-size="14.00">Advanced</text>
<text text-anchor="middle" x="1404.93" y="-503.025" font-family="monospace" font-size="14.00">Industry</text>
<text text-anchor="middle" x="1404.93" y="-488.025" font-family="monospace" font-size="14.00">Facility</text>
</g>
<!-- 1023548907518&#45;&gt;1023548907473 -->
<!-- 1023548907518&#45;&gt;1023548907568 -->
<g id="edge135" class="edge"><title>1023548907518&#45;&gt;1023548907568</title>
<path fill="none" stroke="#17becf" stroke-width="2" d="M1321.77,-605.92C1318.67,-564.709 1317.49,-507.336 1327.93,-458.18 1351.11,-349.162 1359.71,-315.636 1429.93,-229.09 1439.73,-217.023 1452.43,-206.169 1465.02,-197.059"/>
<polygon fill="#17becf" stroke="#17becf" stroke-width="2" points="1467.04,-199.918 1473.25,-191.33 1463.04,-194.174 1467.04,-199.918"/>
</g>
<!-- 1023548907523&#45;&gt;1023548907531 -->
<!-- 1023548907478 -->
<g id="node17" class="node"><title>1023548907478</title>
<polygon fill="white" stroke="white" points="1660.48,-492.65 1660.48,-535.8 1623.26,-566.311 1570.61,-566.311 1533.39,-535.8 1533.39,-492.65 1570.61,-462.138 1623.26,-462.138 1660.48,-492.65"/>
<polygon fill="none" stroke="white" points="1664.49,-490.754 1664.49,-537.695 1624.69,-570.315 1569.18,-570.315 1529.38,-537.695 1529.38,-490.754 1569.18,-458.135 1624.69,-458.135 1664.49,-490.754"/>
<text text-anchor="middle" x="1596.93" y="-533.025" font-family="monospace" font-size="14.00">Barren</text>
<text text-anchor="middle" x="1596.93" y="-518.025" font-family="monospace" font-size="14.00">Advanced</text>
<text text-anchor="middle" x="1596.93" y="-503.025" font-family="monospace" font-size="14.00">Industry</text>
<text text-anchor="middle" x="1596.93" y="-488.025" font-family="monospace" font-size="14.00">Facility</text>
</g>
<!-- 1023548907523&#45;&gt;1023548907478 -->
<!-- 1023548907523&#45;&gt;1023548907505 -->
<g id="edge139" class="edge"><title>1023548907523&#45;&gt;1023548907505</title>
<path fill="none" stroke="#17becf" stroke-width="2" d="M1487.72,-606.057C1493.71,-564.665 1504.02,-507.003 1519.93,-458.18 1522.81,-449.373 1526.64,-440.187 1530.58,-431.682"/>
<polygon fill="#17becf" stroke="#17becf" stroke-width="2" points="1533.85,-432.954 1535.03,-422.425 1527.54,-429.924 1533.85,-432.954"/>
</g>
<!-- 1023548907480 -->
<g id="node18" class="node"><title>1023548907480</title>
<polygon fill="white" stroke="white" points="1980.48,-492.65 1980.48,-535.8 1943.26,-566.311 1890.61,-566.311 1853.39,-535.8 1853.39,-492.65 1890.61,-462.138 1943.26,-462.138 1980.48,-492.65"/>
<polygon fill="none" stroke="white" points="1984.49,-490.754 1984.49,-537.695 1944.69,-570.315 1889.18,-570.315 1849.38,-537.695 1849.38,-490.754 1889.18,-458.135 1944.69,-458.135 1984.49,-490.754"/>
<text text-anchor="middle" x="1916.93" y="-533.025" font-family="monospace" font-size="14.00">Barren</text>
<text text-anchor="middle" x="1916.93" y="-518.025" font-family="monospace" font-size="14.00">Advanced</text>
<text text-anchor="middle" x="1916.93" y="-503.025" font-family="monospace" font-size="14.00">Industry</text>
<text text-anchor="middle" x="1916.93" y="-488.025" font-family="monospace" font-size="14.00">Facility</text>
</g>
<!-- 1023548907531&#45;&gt;1023548907480 -->
<!-- 1023548907531&#45;&gt;1023548907505 -->
<g id="edge142" class="edge"><title>1023548907531&#45;&gt;1023548907505</title>
<path fill="none" stroke="#17becf" stroke-width="2" d="M1978.58,-624.482C1968.4,-617.909 1957.55,-611.499 1946.93,-606.27 1901.93,-584.09 1882.97,-596.068 1839.93,-570.27 1777.62,-532.912 1782.9,-496.123 1720.93,-458.18 1683.36,-435.171 1635.91,-419.022 1600.37,-409.064"/>
<polygon fill="#17becf" stroke="#17becf" stroke-width="2" points="1601.25,-405.676 1590.68,-406.419 1599.4,-412.429 1601.25,-405.676"/>
</g>
<!-- 1023548907467&#45;&gt;1023548907469 -->
<!-- 1023548907467&#45;&gt;1023548907505 -->
<g id="edge37" class="edge"><title>1023548907467&#45;&gt;1023548907505</title>
<path fill="none" stroke="#d62728" stroke-width="2" d="M762.717,-473.428C771.912,-467.371 781.849,-461.907 791.935,-458.18 921.778,-410.202 1347.84,-399.554 1496.89,-397.276"/>
<polygon fill="#d62728" stroke="#d62728" stroke-width="2" points="1497.19,-400.772 1507.13,-397.126 1497.08,-393.773 1497.19,-400.772"/>
</g>
<!-- 1023548907469&#45;&gt;1023548907470 -->
<!-- 1023548907469&#45;&gt;1023548907568 -->
<g id="edge38" class="edge"><title>1023548907469&#45;&gt;1023548907568</title>
<path fill="none" stroke="#d62728" stroke-width="2" d="M867.845,-458.167C869.809,-392.76 883.938,-285.432 950.935,-229.09 989.743,-196.454 1331.05,-176.529 1463.09,-169.983"/>
<polygon fill="#d62728" stroke="#d62728" stroke-width="2" points="1463.53,-173.465 1473.35,-169.48 1463.19,-166.474 1463.53,-173.465"/>
</g>
<!-- 1023548907470&#45;&gt;1023548907473 -->
<!-- 1023548907470&#45;&gt;1023548907568 -->
<g id="edge40" class="edge"><title>1023548907470&#45;&gt;1023548907568</title>
<path fill="none" stroke="#d62728" stroke-width="2" d="M1183.5,-458.086C1196.38,-393.873 1226.91,-288.978 1294.93,-229.09 1341.9,-187.742 1414.54,-174 1463.37,-169.542"/>
<polygon fill="#d62728" stroke="#d62728" stroke-width="2" points="1463.73,-173.025 1473.41,-168.725 1463.16,-166.048 1463.73,-173.025"/>
</g>
<!-- 1023548907473&#45;&gt;1023548907478 -->
<!-- 1023548907473&#45;&gt;1023548907505 -->
<g id="edge43" class="edge"><title>1023548907473&#45;&gt;1023548907505</title>
<path fill="none" stroke="#d62728" stroke-width="2" d="M1452.88,-474.417C1471.02,-459.735 1491.47,-443.192 1508.81,-429.152"/>
<polygon fill="#d62728" stroke="#d62728" stroke-width="2" points="1511.49,-431.491 1517.06,-422.479 1507.08,-426.05 1511.49,-431.491"/>
</g>
<!-- 1023548907478&#45;&gt;1023548907480 -->
<!-- 1023548907478&#45;&gt;1023548907505 -->
<g id="edge45" class="edge"><title>1023548907478&#45;&gt;1023548907505</title>
<path fill="none" stroke="#d62728" stroke-width="2" d="M1574.2,-458.024C1570.51,-449.059 1566.78,-439.997 1563.35,-431.689"/>
<polygon fill="#d62728" stroke="#d62728" stroke-width="2" points="1566.55,-430.249 1559.5,-422.335 1560.07,-432.914 1566.55,-430.249"/>
</g>
<!-- 1023548907480&#45;&gt;1023548907568 -->
<g id="edge46" class="edge"><title>1023548907480&#45;&gt;1023548907568</title>
<path fill="none" stroke="#d62728" stroke-width="2" d="M1884.07,-461.934C1841.62,-399.312 1762.24,-293.777 1670.93,-229.09 1639.29,-206.671 1598.33,-190.93 1566.33,-180.989"/>
<polygon fill="#d62728" stroke="#d62728" stroke-width="2" points="1567.29,-177.623 1556.7,-178.089 1565.27,-184.325 1567.29,-177.623"/>
</g>
<!-- 48866158505123345929385741868356651023 -->
<g id="node19" class="node"><title>48866158505123345929385741868356651023</title>
<text text-anchor="middle" x="1806.93" y="-925.249" font-family="monospace" font-size="14.00" fill="#98df8a">Biocells</text>
</g>
<!-- 49971212038528532126901905038926315773 -->
<g id="node20" class="node"><title>49971212038528532126901905038926315773</title>
<text text-anchor="middle" x="1994.93" y="-925.249" font-family="monospace" font-size="14.00" fill="#17becf">Transcranial Microcontrollers</text>
</g>
<!-- 48866158505123345929385741868356651023&#45;&gt;49971212038528532126901905038926315773 -->
<g id="edge1" class="edge"><title>48866158505123345929385741868356651023&#45;&gt;49971212038528532126901905038926315773</title>
<path fill="none" stroke="white" d="M1848.79,-928.949C1851.42,-928.949 1854.04,-928.949 1856.66,-928.949"/>
<polygon fill="white" stroke="white" points="1856.78,-932.45 1866.78,-928.949 1856.78,-925.45 1856.78,-932.45"/>
</g>
<!-- 256224882506629441646160549843666343664 -->
<g id="node21" class="node"><title>256224882506629441646160549843666343664</title>
<text text-anchor="middle" x="2215.93" y="-925.249" font-family="monospace" font-size="14.00" fill="#98df8a">Water&#45;Cooled CPU</text>
</g>
<!-- 49971212038528532126901905038926315773&#45;&gt;256224882506629441646160549843666343664 -->
<g id="edge2" class="edge"><title>49971212038528532126901905038926315773&#45;&gt;256224882506629441646160549843666343664</title>
<path fill="none" stroke="white" d="M2123.13,-928.949C2125.78,-928.949 2128.42,-928.949 2131.06,-928.949"/>
<polygon fill="white" stroke="white" points="2131.26,-932.45 2141.26,-928.949 2131.26,-925.45 2131.26,-932.45"/>
</g>
<!-- 338531300909059667104145586501846962657 -->
<g id="node22" class="node"><title>338531300909059667104145586501846962657</title>
<text text-anchor="middle" x="2361.93" y="-925.249" font-family="monospace" font-size="14.00" fill="#dbdb8d">Transmitter</text>
</g>
<!-- 256224882506629441646160549843666343664&#45;&gt;338531300909059667104145586501846962657 -->
<g id="edge3" class="edge"><title>256224882506629441646160549843666343664&#45;&gt;338531300909059667104145586501846962657</title>
<path fill="none" stroke="white" d="M2290.65,-928.949C2293.11,-928.949 2295.58,-928.949 2298.05,-928.949"/>
<polygon fill="white" stroke="white" points="2298.19,-932.45 2308.19,-928.949 2298.19,-925.45 2298.19,-932.45"/>
</g>
<!-- 131629465020569825271701546353766046052 -->
<g id="node23" class="node"><title>131629465020569825271701546353766046052</title>
<text text-anchor="middle" x="2528.93" y="-925.249" font-family="monospace" font-size="14.00" fill="#ffbb78">Supertensile Plastics</text>
</g>
<!-- 338531300909059667104145586501846962657&#45;&gt;131629465020569825271701546353766046052 -->
<g id="edge4" class="edge"><title>338531300909059667104145586501846962657&#45;&gt;131629465020569825271701546353766046052</title>
<path fill="none" stroke="white" d="M2415.75,-928.949C2418.4,-928.949 2421.04,-928.949 2423.68,-928.949"/>
<polygon fill="white" stroke="white" points="2423.88,-932.45 2433.88,-928.949 2423.88,-925.45 2423.88,-932.45"/>
</g>
<!-- 258426813612184943840539928798948004629 -->
<g id="node24" class="node"><title>258426813612184943840539928798948004629</title>
<text text-anchor="middle" x="2757.93" y="-925.249" font-family="monospace" font-size="14.00" fill="#e377c2">Recursive Computing Module</text>
</g>
<!-- 131629465020569825271701546353766046052&#45;&gt;258426813612184943840539928798948004629 -->
<g id="edge5" class="edge"><title>131629465020569825271701546353766046052&#45;&gt;258426813612184943840539928798948004629</title>
<path fill="none" stroke="white" d="M2624.2,-928.949C2626.83,-928.949 2629.46,-928.949 2632.09,-928.949"/>
<polygon fill="white" stroke="white" points="2632.22,-932.45 2642.22,-928.949 2632.22,-925.45 2632.22,-932.45"/>
</g>
<!-- 51987156854452412613925661565787940210 -->
<g id="node25" class="node"><title>51987156854452412613925661565787940210</title>
<text text-anchor="middle" x="2965.93" y="-925.249" font-family="monospace" font-size="14.00" fill="#dbdb8d">Guidance Systems</text>
</g>
<!-- 258426813612184943840539928798948004629&#45;&gt;51987156854452412613925661565787940210 -->
<g id="edge6" class="edge"><title>258426813612184943840539928798948004629&#45;&gt;51987156854452412613925661565787940210</title>
<path fill="none" stroke="white" d="M2873.72,-928.949C2876.2,-928.949 2878.68,-928.949 2881.16,-928.949"/>
<polygon fill="white" stroke="white" points="2881.37,-932.45 2891.37,-928.949 2881.37,-925.45 2881.37,-932.45"/>
</g>
<!-- 137716970253803550834456147513889224703 -->
<g id="node26" class="node"><title>137716970253803550834456147513889224703</title>
<text text-anchor="middle" x="3119.93" y="-925.249" font-family="monospace" font-size="14.00" fill="#2ca02c">Test Cultures</text>
</g>
<!-- 51987156854452412613925661565787940210&#45;&gt;137716970253803550834456147513889224703 -->
<g id="edge7" class="edge"><title>51987156854452412613925661565787940210&#45;&gt;137716970253803550834456147513889224703</title>
<path fill="none" stroke="white" d="M3040.53,-928.949C3042.97,-928.949 3045.41,-928.949 3047.86,-928.949"/>
<polygon fill="white" stroke="white" points="3047.9,-932.45 3057.9,-928.949 3047.9,-925.45 3047.9,-932.45"/>
</g>
<!-- 118315500557313000402028510176223805669 -->
<g id="node27" class="node"><title>118315500557313000402028510176223805669</title>
<text text-anchor="middle" x="3236.93" y="-925.249" font-family="monospace" font-size="14.00" fill="#c49c94">Nanites</text>
</g>
<!-- 137716970253803550834456147513889224703&#45;&gt;118315500557313000402028510176223805669 -->
<g id="edge8" class="edge"><title>137716970253803550834456147513889224703&#45;&gt;118315500557313000402028510176223805669</title>
<path fill="none" stroke="white" d="M3182.09,-928.949C3184.56,-928.949 3187.03,-928.949 3189.5,-928.949"/>
<polygon fill="white" stroke="white" points="3189.66,-932.45 3199.66,-928.949 3189.66,-925.45 3189.66,-932.45"/>
</g>
<!-- 191038744250674699193592619971255718967 -->
<g id="node28" class="node"><title>191038744250674699193592619971255718967</title>
<text text-anchor="middle" x="3374.93" y="-925.249" font-family="monospace" font-size="14.00" fill="#d62728">Synthetic Synapses</text>
</g>
<!-- 118315500557313000402028510176223805669&#45;&gt;191038744250674699193592619971255718967 -->
<g id="edge9" class="edge"><title>118315500557313000402028510176223805669&#45;&gt;191038744250674699193592619971255718967</title>
<path fill="none" stroke="white" d="M3274.13,-928.949C3276.77,-928.949 3279.41,-928.949 3282.05,-928.949"/>
<polygon fill="white" stroke="white" points="3282.24,-932.45 3292.24,-928.949 3282.24,-925.45 3282.24,-932.45"/>
</g>
<!-- 1023548907583 -->
<g id="node31" class="node"><title>1023548907583</title>
<polygon fill="white" stroke="white" points="1590.48,-259.558 1590.48,-302.711 1546.23,-333.225 1483.64,-333.225 1439.39,-302.711 1439.39,-259.558 1483.64,-229.045 1546.23,-229.045 1590.48,-259.558"/>
<text text-anchor="middle" x="1514.93" y="-299.935" font-family="monospace" font-size="14.00">Barren</text>
<text text-anchor="middle" x="1514.93" y="-284.935" font-family="monospace" font-size="14.00">High&#45;Tech</text>
<text text-anchor="middle" x="1514.93" y="-269.935" font-family="monospace" font-size="14.00">Production</text>
<text text-anchor="middle" x="1514.93" y="-254.935" font-family="monospace" font-size="14.00">Plant</text>
</g>
<!-- 1023548907505&#45;&gt;1023548907583 -->
<g id="edge119" class="edge"><title>1023548907505&#45;&gt;1023548907583</title>
<path fill="none" stroke="#dbdb8d" stroke-width="2" d="M1529.7,-369.142C1526.18,-361.248 1522.8,-352.19 1519.85,-342.967"/>
<polygon fill="#dbdb8d" stroke="#dbdb8d" stroke-width="2" points="1523.19,-341.905 1516.95,-333.339 1516.48,-343.923 1523.19,-341.905"/>
</g>
<!-- 1023548907505&#45;&gt;1023548907583 -->
<g id="edge120" class="edge"><title>1023548907505&#45;&gt;1023548907583</title>
<path fill="none" stroke="#d62728" stroke-width="2" d="M1541.22,-369.142C1538.83,-361.248 1536.1,-352.19 1533.31,-342.967"/>
<polygon fill="#d62728" stroke="#d62728" stroke-width="2" points="1536.65,-341.899 1530.4,-333.339 1529.94,-343.924 1536.65,-341.899"/>
</g>
<!-- 1023548907505&#45;&gt;1023548907583 -->
<g id="edge121" class="edge"><title>1023548907505&#45;&gt;1023548907583</title>
<path fill="none" stroke="#17becf" stroke-width="2" d="M1552.74,-369.142C1551.49,-361.248 1549.4,-352.19 1546.77,-342.967"/>
<polygon fill="#17becf" stroke="#17becf" stroke-width="2" points="1550.1,-341.894 1543.85,-333.339 1543.41,-343.924 1550.1,-341.894"/>
</g>
<!-- 1023548907594 -->
<g id="node32" class="node"><title>1023548907594</title>
<polygon fill="white" stroke="white" points="1590.48,-30.4686 1590.48,-73.6213 1546.23,-104.135 1483.64,-104.135 1439.39,-73.6213 1439.39,-30.4686 1483.64,0.0449857 1546.23,0.0449857 1590.48,-30.4686"/>
<text text-anchor="middle" x="1514.93" y="-70.8449" font-family="monospace" font-size="14.00">Barren</text>
<text text-anchor="middle" x="1514.93" y="-55.8449" font-family="monospace" font-size="14.00">High&#45;Tech</text>
<text text-anchor="middle" x="1514.93" y="-40.8449" font-family="monospace" font-size="14.00">Production</text>
<text text-anchor="middle" x="1514.93" y="-25.8449" font-family="monospace" font-size="14.00">Plant</text>
</g>
<!-- 1023548907505&#45;&gt;1023548907594 -->
<g id="edge122" class="edge"><title>1023548907505&#45;&gt;1023548907594</title>
<path fill="none" stroke="#dbdb8d" stroke-width="2" d="M1560.02,-369.138C1568.06,-358.955 1577.13,-346.489 1581.93,-333.18 1597.63,-289.662 1590.55,-274.543 1581.93,-229.09 1574.19,-188.247 1554.4,-146.187 1537.83,-113.424"/>
<polygon fill="#dbdb8d" stroke="#dbdb8d" stroke-width="2" points="1540.91,-111.762 1533.26,-104.439 1534.68,-114.938 1540.91,-111.762"/>
</g>
<!-- 1023548907505&#45;&gt;1023548907594 -->
<g id="edge123" class="edge"><title>1023548907505&#45;&gt;1023548907594</title>
<path fill="none" stroke="#d62728" stroke-width="2" d="M1576.89,-369.138C1586.06,-358.955 1595.13,-346.489 1599.93,-333.18 1615.63,-289.662 1608.55,-274.543 1599.93,-229.09 1592.11,-187.79 1571.96,-145.245 1553.24,-112.327"/>
<polygon fill="#d62728" stroke="#d62728" stroke-width="2" points="1556.05,-110.203 1548.01,-103.307 1550,-113.714 1556.05,-110.203"/>
</g>
<!-- 1023548907505&#45;&gt;1023548907594 -->
<g id="edge124" class="edge"><title>1023548907505&#45;&gt;1023548907594</title>
<path fill="none" stroke="#17becf" stroke-width="2" d="M1590.68,-372.066C1602.24,-361.392 1612.66,-347.793 1617.93,-333.18 1633.63,-289.662 1626.55,-274.543 1617.93,-229.09 1609.46,-184.362 1586.53,-138.176 1564.03,-104.338"/>
<polygon fill="#17becf" stroke="#17becf" stroke-width="2" points="1566.86,-102.284 1558.33,-96.0098 1561.09,-106.239 1566.86,-102.284"/>
</g>
<!-- 1023548907597 -->
<g id="node33" class="node"><title>1023548907597</title>
<polygon fill="white" stroke="white" points="1909.48,-30.4686 1909.48,-73.6213 1865.23,-104.135 1802.64,-104.135 1758.39,-73.6213 1758.39,-30.4686 1802.64,0.0449857 1865.23,0.0449857 1909.48,-30.4686"/>
<text text-anchor="middle" x="1833.93" y="-70.8449" font-family="monospace" font-size="14.00">Barren</text>
<text text-anchor="middle" x="1833.93" y="-55.8449" font-family="monospace" font-size="14.00">High&#45;Tech</text>
<text text-anchor="middle" x="1833.93" y="-40.8449" font-family="monospace" font-size="14.00">Production</text>
<text text-anchor="middle" x="1833.93" y="-25.8449" font-family="monospace" font-size="14.00">Plant</text>
</g>
<!-- 1023548907505&#45;&gt;1023548907597 -->
<g id="edge125" class="edge"><title>1023548907505&#45;&gt;1023548907597</title>
<path fill="none" stroke="#dbdb8d" stroke-width="2" d="M1566.65,-368.963C1580.09,-358.848 1596.6,-346.472 1609.93,-333.18 1680.51,-262.814 1743.12,-164.499 1785.52,-105"/>
<polygon fill="#dbdb8d" stroke="#dbdb8d" stroke-width="2" points="1788.37,-107.031 1791.37,-96.8689 1782.69,-102.944 1788.37,-107.031"/>
</g>
<!-- 1023548907505&#45;&gt;1023548907597 -->
<g id="edge126" class="edge"><title>1023548907505&#45;&gt;1023548907597</title>
<path fill="none" stroke="#d62728" stroke-width="2" d="M1583.54,-368.963C1598.09,-358.848 1614.6,-346.472 1627.93,-333.18 1696.16,-265.159 1756.94,-171.02 1794.65,-111.074"/>
<polygon fill="#d62728" stroke="#d62728" stroke-width="2" points="1797.69,-112.815 1800.04,-102.485 1791.76,-109.092 1797.69,-112.815"/>
</g>
<!-- 1023548907505&#45;&gt;1023548907597 -->
<g id="edge127" class="edge"><title>1023548907505&#45;&gt;1023548907597</title>
<path fill="none" stroke="#17becf" stroke-width="2" d="M1590.82,-374.966C1609.09,-363.955 1629.83,-349.235 1645.93,-333.18 1713.31,-265.997 1773.44,-173.336 1806.85,-113.306"/>
<polygon fill="#17becf" stroke="#17becf" stroke-width="2" points="1810.03,-114.777 1811.78,-104.327 1803.9,-111.407 1810.03,-114.777"/>
</g>
<!-- 1023548907568&#45;&gt;1023548907583 -->
<g id="edge22" class="edge"><title>1023548907568&#45;&gt;1023548907583</title>
<path fill="none" stroke="#dbdb8d" stroke-width="2" d="M1509.16,-193.35C1508.61,-201.019 1508.3,-209.771 1508.21,-218.698"/>
<polygon fill="#dbdb8d" stroke="#dbdb8d" stroke-width="2" points="1504.71,-218.802 1508.21,-228.803 1511.71,-218.803 1504.71,-218.802"/>
</g>
<!-- 1023548907568&#45;&gt;1023548907583 -->
<g id="edge23" class="edge"><title>1023548907568&#45;&gt;1023548907583</title>
<path fill="none" stroke="#d62728" stroke-width="2" d="M1520.71,-193.35C1521.26,-201.019 1521.57,-209.771 1521.66,-218.698"/>
<polygon fill="#d62728" stroke="#d62728" stroke-width="2" points="1518.16,-218.803 1521.66,-228.803 1525.16,-218.802 1518.16,-218.803"/>
</g>
<!-- 1023548907568&#45;&gt;1023548907583 -->
<g id="edge24" class="edge"><title>1023548907568&#45;&gt;1023548907583</title>
<path fill="none" stroke="#17becf" stroke-width="2" d="M1532.26,-193.35C1533.9,-201.019 1534.85,-209.771 1535.11,-218.698"/>
<polygon fill="#17becf" stroke="#17becf" stroke-width="2" points="1531.61,-218.805 1535.11,-228.803 1538.61,-218.8 1531.61,-218.805"/>
</g>
<!-- 1023548907568&#45;&gt;1023548907594 -->
<g id="edge25" class="edge"><title>1023548907568&#45;&gt;1023548907594</title>
<path fill="none" stroke="#dbdb8d" stroke-width="2" d="M1497.65,-140.052C1495.99,-132.324 1495.02,-123.481 1494.76,-114.46"/>
<polygon fill="#dbdb8d" stroke="#dbdb8d" stroke-width="2" points="1498.26,-114.248 1494.76,-104.249 1491.26,-114.25 1498.26,-114.248"/>
</g>
<!-- 1023548907568&#45;&gt;1023548907594 -->
<g id="edge26" class="edge"><title>1023548907568&#45;&gt;1023548907594</title>
<path fill="none" stroke="#d62728" stroke-width="2" d="M1509.17,-140.052C1508.62,-132.324 1508.3,-123.481 1508.21,-114.46"/>
<polygon fill="#d62728" stroke="#d62728" stroke-width="2" points="1511.71,-114.249 1508.21,-104.249 1504.71,-114.249 1511.71,-114.249"/>
</g>
<!-- 1023548907568&#45;&gt;1023548907594 -->
<g id="edge27" class="edge"><title>1023548907568&#45;&gt;1023548907594</title>
<path fill="none" stroke="#17becf" stroke-width="2" d="M1520.7,-140.052C1521.25,-132.324 1521.57,-123.481 1521.66,-114.46"/>
<polygon fill="#17becf" stroke="#17becf" stroke-width="2" points="1525.16,-114.249 1521.66,-104.249 1518.16,-114.249 1525.16,-114.249"/>
</g>
<!-- 1023548907568&#45;&gt;1023548907597 -->
<g id="edge28" class="edge"><title>1023548907568&#45;&gt;1023548907597</title>
<path fill="none" stroke="#dbdb8d" stroke-width="2" d="M1556.62,-147.257C1605.82,-128.544 1688.15,-99.3544 1750.5,-78.4256"/>
<polygon fill="#dbdb8d" stroke="#dbdb8d" stroke-width="2" points="1751.95,-81.6305 1760.32,-75.1404 1749.73,-74.9917 1751.95,-81.6305"/>
</g>
<!-- 1023548907568&#45;&gt;1023548907597 -->
<g id="edge29" class="edge"><title>1023548907568&#45;&gt;1023548907597</title>
<path fill="none" stroke="#d62728" stroke-width="2" d="M1556.64,-150.877C1606.76,-133.194 1691.94,-103.143 1754.7,-81.0011"/>
<polygon fill="#d62728" stroke="#d62728" stroke-width="2" points="1755.91,-84.2842 1764.18,-77.6565 1753.58,-77.683 1755.91,-84.2842"/>
</g>
<!-- 1023548907568&#45;&gt;1023548907597 -->
<g id="edge30" class="edge"><title>1023548907568&#45;&gt;1023548907597</title>
<path fill="none" stroke="#17becf" stroke-width="2" d="M1556.49,-153.97C1607.83,-137.596 1695.33,-107.147 1758.51,-83.9606"/>
<polygon fill="#17becf" stroke="#17becf" stroke-width="2" points="1759.86,-87.1914 1768.03,-80.45 1757.44,-80.623 1759.86,-87.1914"/>
</g>
<!-- 1023548907583&#45;&gt;1023548907568 -->
<g id="edge34" class="edge"><title>1023548907583&#45;&gt;1023548907568</title>
<path fill="none" stroke="#e377c2" stroke-width="2" d="M1494.75,-228.803C1494.51,-220.161 1494.91,-211.362 1495.95,-203.231"/>
<polygon fill="#e377c2" stroke="#e377c2" stroke-width="2" points="1499.4,-203.792 1497.6,-193.35 1492.5,-202.633 1499.4,-203.792"/>
</g>
<!-- 1023548907594&#45;&gt;1023548907568 -->
<g id="edge35" class="edge"><title>1023548907594&#45;&gt;1023548907568</title>
<path fill="none" stroke="#e377c2" stroke-width="2" d="M1535.11,-104.249C1535.36,-112.98 1534.96,-121.875 1533.91,-130.084"/>
<polygon fill="#e377c2" stroke="#e377c2" stroke-width="2" points="1530.44,-129.608 1532.22,-140.052 1537.34,-130.777 1530.44,-129.608"/>
</g>
<!-- 1023548907597&#45;&gt;1023548907505 -->
<g id="edge128" class="edge"><title>1023548907597&#45;&gt;1023548907505</title>
<path fill="none" stroke="#e377c2" stroke-width="2" d="M1824.67,-104.327C1797.59,-163.755 1734.77,-262.548 1663.93,-333.18 1645.95,-351.108 1622.19,-367.371 1599.82,-378.664"/>
<polygon fill="#e377c2" stroke="#e377c2" stroke-width="2" points="1598.18,-375.568 1590.67,-383.04 1601.2,-381.882 1598.18,-375.568"/>
</g>
<!-- 1023548849100 -->
<g id="node34" class="node"><title>1023548849100</title>
<polygon fill="white" stroke="white" points="3549.93,-955.449 3475.93,-955.449 3475.93,-902.449 3549.93,-902.449 3549.93,-955.449"/>
<text text-anchor="middle" x="3512.93" y="-940.249" font-family="monospace" font-size="14.00">Barren</text>
<text text-anchor="middle" x="3512.93" y="-925.249" font-family="monospace" font-size="14.00">Command</text>
<text text-anchor="middle" x="3512.93" y="-910.249" font-family="monospace" font-size="14.00">Center</text>
</g>
<!-- 1023548907491 -->
<g id="node35" class="node"><title>1023548907491</title>
<polygon fill="white" stroke="white" points="554.435,-947.949 463.435,-947.949 463.435,-909.949 554.435,-909.949 554.435,-947.949"/>
<text text-anchor="middle" x="508.935" y="-932.749" font-family="monospace" font-size="14.00">Barren</text>
<text text-anchor="middle" x="508.935" y="-917.749" font-family="monospace" font-size="14.00">Launchpad</text>
</g>
<!-- 1023548907491&#45;&gt;1023548907543 -->
<g id="edge47" class="edge"><title>1023548907491&#45;&gt;1023548907543</title>
<path fill="none" stroke="#dbdb8d" stroke-width="2" d="M554.586,-911.266C585.86,-900.284 627.717,-884.605 662.935,-866.449 672.174,-861.686 681.636,-856.092 690.817,-850.328"/>
<polygon fill="#dbdb8d" stroke="#dbdb8d" stroke-width="2" points="692.973,-853.103 699.516,-844.77 689.204,-847.204 692.973,-853.103"/>
</g>
<!-- 1023548907491&#45;&gt;1023548907543 -->
<g id="edge48" class="edge"><title>1023548907491&#45;&gt;1023548907543</title>
<path fill="none" stroke="#98df8a" stroke-width="2" d="M554.665,-916.177C590.269,-905.247 640.071,-887.515 680.935,-866.449 686.635,-863.511 692.421,-860.255 698.117,-856.839"/>
<polygon fill="#98df8a" stroke="#98df8a" stroke-width="2" points="700.307,-859.599 706.968,-851.36 696.623,-853.647 700.307,-859.599"/>
</g>
<!-- 1023548907491&#45;&gt;1023548907549 -->
<g id="edge49" class="edge"><title>1023548907491&#45;&gt;1023548907549</title>
<path fill="none" stroke="#dbdb8d" stroke-width="2" d="M554.619,-924.992C617.272,-919.729 731.94,-905.326 821.935,-866.449 830.482,-862.757 839,-857.97 847.177,-852.762"/>
<polygon fill="#dbdb8d" stroke="#dbdb8d" stroke-width="2" points="849.156,-855.649 855.561,-847.209 845.291,-849.812 849.156,-855.649"/>
</g>
<!-- 1023548907491&#45;&gt;1023548907549 -->
<g id="edge50" class="edge"><title>1023548907491&#45;&gt;1023548907549</title>
<path fill="none" stroke="#98df8a" stroke-width="2" d="M554.67,-925.893C620.526,-921.469 744.193,-907.809 839.935,-866.449 844.889,-864.309 849.833,-861.801 854.668,-859.057"/>
<polygon fill="#98df8a" stroke="#98df8a" stroke-width="2" points="856.478,-862.053 863.231,-853.889 852.861,-856.059 856.478,-862.053"/>
</g>
<!-- 1023548907491&#45;&gt;1023548907558 -->
<g id="edge51" class="edge"><title>1023548907491&#45;&gt;1023548907558</title>
<path fill="none" stroke="#dbdb8d" stroke-width="2" d="M554.59,-925.701C638.983,-920.87 824.031,-906.474 974.935,-866.449 998.333,-860.244 1023.08,-850.923 1045.33,-841.707"/>
<polygon fill="#dbdb8d" stroke="#dbdb8d" stroke-width="2" points="1046.84,-844.871 1054.7,-837.774 1044.13,-838.417 1046.84,-844.871"/>
</g>
<!-- 1023548907491&#45;&gt;1023548907558 -->
<g id="edge52" class="edge"><title>1023548907491&#45;&gt;1023548907558</title>
<path fill="none" stroke="#98df8a" stroke-width="2" d="M554.647,-926.251C641.647,-922.015 835.802,-908.126 992.935,-866.449 1012.38,-861.292 1032.75,-853.984 1051.31,-846.372"/>
<polygon fill="#98df8a" stroke="#98df8a" stroke-width="2" points="1052.67,-849.595 1060.54,-842.498 1049.96,-843.14 1052.67,-849.595"/>
</g>
<!-- 1023548907491&#45;&gt;1023548907565 -->
<g id="edge53" class="edge"><title>1023548907491&#45;&gt;1023548907565</title>
<path fill="none" stroke="#dbdb8d" stroke-width="2" d="M554.589,-928.598C664.907,-928.962 953.401,-923.578 1185.93,-866.449 1209.4,-860.685 1234.11,-851.423 1256.27,-842.127"/>
<polygon fill="#dbdb8d" stroke="#dbdb8d" stroke-width="2" points="1257.77,-845.292 1265.59,-838.151 1255.02,-838.853 1257.77,-845.292"/>
</g>
<!-- 1023548907491&#45;&gt;1023548907565 -->
<g id="edge54" class="edge"><title>1023548907491&#45;&gt;1023548907565</title>
<path fill="none" stroke="#98df8a" stroke-width="2" d="M554.563,-928.556C667.017,-929.219 965.014,-925.148 1203.93,-866.449 1223.26,-861.702 1243.43,-854.583 1261.77,-847.027"/>
<polygon fill="#98df8a" stroke="#98df8a" stroke-width="2" points="1263.34,-850.164 1271.19,-843.046 1260.62,-843.717 1263.34,-850.164"/>
</g>
<!-- 1023548907491&#45;&gt;1023548907601 -->
<g id="edge79" class="edge"><title>1023548907491&#45;&gt;1023548907601</title>
<path fill="none" stroke="#dbdb8d" stroke-width="2" d="M554.547,-927.189C685.967,-924.539 1075.78,-913.124 1395.93,-866.449 1455.59,-857.753 1522.28,-842.391 1572.42,-830.101"/>
<polygon fill="#dbdb8d" stroke="#dbdb8d" stroke-width="2" points="1573.35,-833.478 1582.22,-827.687 1571.68,-826.681 1573.35,-833.478"/>
</g>
<!-- 1023548907491&#45;&gt;1023548907601 -->
<g id="edge80" class="edge"><title>1023548907491&#45;&gt;1023548907601</title>
<path fill="none" stroke="#98df8a" stroke-width="2" d="M554.614,-927.341C687.969,-924.992 1087.22,-914.08 1413.93,-866.449 1467.49,-858.642 1526.71,-845.463 1572.49,-833.957"/>
<polygon fill="#98df8a" stroke="#98df8a" stroke-width="2" points="1573.52,-837.309 1582.35,-831.454 1571.79,-830.524 1573.52,-837.309"/>
</g>
<!-- 1023548907491&#45;&gt;1023548907534 -->
<g id="edge81" class="edge"><title>1023548907491&#45;&gt;1023548907534</title>
<path fill="none" stroke="#dbdb8d" stroke-width="2" d="M554.557,-928.464C715.006,-929.556 1267.17,-928.009 1717.93,-866.449 1777.66,-858.292 1844.35,-842.887 1894.47,-830.444"/>
<polygon fill="#dbdb8d" stroke="#dbdb8d" stroke-width="2" points="1895.41,-833.816 1904.27,-827.998 1893.72,-827.025 1895.41,-833.816"/>
</g>
<!-- 1023548907491&#45;&gt;1023548907534 -->
<g id="edge82" class="edge"><title>1023548907491&#45;&gt;1023548907534</title>
<path fill="none" stroke="#98df8a" stroke-width="2" d="M554.691,-928.415C716.924,-929.588 1278.61,-928.904 1735.93,-866.449 1789.56,-859.127 1848.79,-845.962 1894.55,-834.343"/>
<polygon fill="#98df8a" stroke="#98df8a" stroke-width="2" points="1895.58,-837.691 1904.4,-831.813 1893.84,-830.911 1895.58,-837.691"/>
</g>
<!-- 1023548907491&#45;&gt;1023548907575 -->
<g id="edge55" class="edge"><title>1023548907491&#45;&gt;1023548907575</title>
<path fill="none" stroke="#98df8a" stroke-width="2" d="M463.316,-925.42C422.317,-920.587 364.717,-906.626 336.935,-866.449 308.6,-825.474 305.779,-793.233 336.935,-754.36 378.211,-702.858 566.786,-678.58 675.746,-668.839"/>
<polygon fill="#98df8a" stroke="#98df8a" stroke-width="2" points="676.377,-672.298 686.035,-667.942 675.768,-665.324 676.377,-672.298"/>
</g>
<!-- 1023548907491&#45;&gt;1023548907575 -->
<g id="edge56" class="edge"><title>1023548907491&#45;&gt;1023548907575</title>
<path fill="none" stroke="#c49c94" stroke-width="2" d="M463.128,-923.307C427.177,-916.939 379.449,-901.899 354.935,-866.449 326.6,-825.474 323.779,-793.233 354.935,-754.36 394.741,-704.691 571.548,-680.343 676.029,-669.935"/>
<polygon fill="#c49c94" stroke="#c49c94" stroke-width="2" points="676.605,-673.396 686.218,-668.942 675.925,-666.429 676.605,-673.396"/>
</g>
<!-- 1023548907491&#45;&gt;1023548907510 -->
<g id="edge69" class="edge"><title>1023548907491&#45;&gt;1023548907510</title>
<path fill="none" stroke="#98df8a" stroke-width="2" d="M463.259,-917.008C437.463,-907.799 407.69,-891.949 392.935,-866.449 367.984,-823.33 359.213,-791.029 392.935,-754.36 457.692,-683.94 732.241,-751.638 821.935,-718.36 830.777,-715.079 839.507,-710.467 847.826,-705.294"/>
<polygon fill="#98df8a" stroke="#98df8a" stroke-width="2" points="849.88,-708.133 856.336,-699.732 846.05,-702.274 849.88,-708.133"/>
</g>
<!-- 1023548907491&#45;&gt;1023548907510 -->
<g id="edge70" class="edge"><title>1023548907491&#45;&gt;1023548907510</title>
<path fill="none" stroke="#c49c94" stroke-width="2" d="M463.214,-910.267C443.572,-900.684 422.578,-886.571 410.935,-866.449 385.984,-823.33 377.213,-791.029 410.935,-754.36 475.692,-683.94 750.241,-751.638 839.935,-718.36 845.09,-716.447 850.206,-714.082 855.185,-711.417"/>
<polygon fill="#c49c94" stroke="#c49c94" stroke-width="2" points="857.073,-714.368 863.974,-706.329 853.566,-708.31 857.073,-714.368"/>
</g>
<!-- 1023548907491&#45;&gt;1023548907513 -->
<g id="edge71" class="edge"><title>1023548907491&#45;&gt;1023548907513</title>
<path fill="none" stroke="#98df8a" stroke-width="2" d="M480.078,-909.725C467.709,-898.526 454.959,-883.151 448.935,-866.449 432.032,-819.587 414.932,-790.769 448.935,-754.36 488.918,-711.546 917.243,-728.528 974.935,-718.36 1015.96,-711.129 1060.76,-698.478 1097.6,-687.127"/>
<polygon fill="#98df8a" stroke="#98df8a" stroke-width="2" points="1098.77,-690.429 1107.28,-684.119 1096.69,-683.745 1098.77,-690.429"/>
</g>
<!-- 1023548907491&#45;&gt;1023548907513 -->
<g id="edge72" class="edge"><title>1023548907491&#45;&gt;1023548907513</title>
<path fill="none" stroke="#c49c94" stroke-width="2" d="M495.828,-909.725C485.709,-898.526 472.959,-883.151 466.935,-866.449 450.032,-819.587 432.932,-790.769 466.935,-754.36 506.918,-711.546 935.243,-728.528 992.935,-718.36 1028.82,-712.035 1067.59,-701.565 1100.13,-691.444"/>
<polygon fill="#c49c94" stroke="#c49c94" stroke-width="2" points="1101.54,-694.67 1110.02,-688.32 1099.43,-687.995 1101.54,-694.67"/>
</g>
<!-- 1023548907491&#45;&gt;1023548907518 -->
<g id="edge73" class="edge"><title>1023548907491&#45;&gt;1023548907518</title>
<path fill="none" stroke="#98df8a" stroke-width="2" d="M497.384,-909.686C482.231,-874.281 463.99,-796.129 504.935,-754.36 562.404,-695.732 1165.48,-745.567 1242.93,-718.36 1251.83,-715.234 1260.59,-710.707 1268.93,-705.573"/>
<polygon fill="#98df8a" stroke="#98df8a" stroke-width="2" points="1270.97,-708.42 1277.45,-700.035 1267.15,-702.551 1270.97,-708.42"/>
</g>
<!-- 1023548907491&#45;&gt;1023548907518 -->
<g id="edge74" class="edge"><title>1023548907491&#45;&gt;1023548907518</title>
<path fill="none" stroke="#c49c94" stroke-width="2" d="M507.551,-909.686C500.231,-874.281 481.99,-796.129 522.935,-754.36 580.404,-695.732 1183.48,-745.567 1260.93,-718.36 1266.12,-716.537 1271.26,-714.239 1276.26,-711.621"/>
<polygon fill="#c49c94" stroke="#c49c94" stroke-width="2" points="1278.12,-714.591 1285.07,-706.599 1274.65,-708.509 1278.12,-714.591"/>
</g>
<!-- 1023548907491&#45;&gt;1023548907523 -->
<g id="edge75" class="edge"><title>1023548907491&#45;&gt;1023548907523</title>
<path fill="none" stroke="#98df8a" stroke-width="2" d="M507.989,-909.7C512.363,-869.111 535.21,-773.432 560.935,-754.36 635.532,-699.052 1308.23,-748.887 1395.93,-718.36 1404.84,-715.259 1413.61,-710.746 1421.94,-705.618"/>
<polygon fill="#98df8a" stroke="#98df8a" stroke-width="2" points="1423.98,-708.467 1430.46,-700.085 1420.17,-702.596 1423.98,-708.467"/>
</g>
<!-- 1023548907491&#45;&gt;1023548907523 -->
<g id="edge76" class="edge"><title>1023548907491&#45;&gt;1023548907523</title>
<path fill="none" stroke="#c49c94" stroke-width="2" d="M517.341,-909.7C530.363,-869.111 553.21,-773.432 578.935,-754.36 653.532,-699.052 1326.23,-748.887 1413.93,-718.36 1419.22,-716.519 1424.46,-714.18 1429.55,-711.509"/>
<polygon fill="#c49c94" stroke="#c49c94" stroke-width="2" points="1431.57,-714.385 1438.51,-706.381 1428.09,-708.309 1431.57,-714.385"/>
</g>
<!-- 1023548907491&#45;&gt;1023548907531 -->
<g id="edge77" class="edge"><title>1023548907491&#45;&gt;1023548907531</title>
<path fill="none" stroke="#98df8a" stroke-width="2" d="M544.157,-909.892C564.333,-899.503 588.967,-884.841 606.935,-866.449 646.57,-825.881 619.684,-784.171 667.935,-754.36 717.306,-723.856 1654.22,-724.48 1711.93,-718.36 1793.97,-709.659 1887.07,-691.908 1951.12,-678.908"/>
<polygon fill="#98df8a" stroke="#98df8a" stroke-width="2" points="1952.04,-682.292 1961.14,-676.864 1950.64,-675.433 1952.04,-682.292"/>
</g>
<!-- 1023548907491&#45;&gt;1023548907531 -->
<g id="edge78" class="edge"><title>1023548907491&#45;&gt;1023548907531</title>
<path fill="none" stroke="#c49c94" stroke-width="2" d="M554.587,-912.52C577.971,-902.041 605.394,-886.45 624.935,-866.449 664.57,-825.881 637.684,-784.171 685.935,-754.36 735.306,-723.856 1672.22,-724.48 1729.93,-718.36 1805.92,-710.301 1891.39,-694.479 1951.5,-681.858"/>
<polygon fill="#c49c94" stroke="#c49c94" stroke-width="2" points="1952.23,-685.279 1961.29,-679.781 1950.78,-678.431 1952.23,-685.279"/>
</g>
<!-- 1023548907491&#45;&gt;1023548907467 -->
<g id="edge57" class="edge"><title>1023548907491&#45;&gt;1023548907467</title>
<path fill="none" stroke="#ffbb78" stroke-width="2" d="M463.134,-928.765C358.76,-929.759 108.881,-926.106 56.9345,-866.449 -19.0025,-779.242 -18.9494,-693.523 56.9345,-606.27 94.4032,-563.187 471.632,-531.757 637.96,-520.142"/>
<polygon fill="#ffbb78" stroke="#ffbb78" stroke-width="2" points="638.391,-523.621 648.125,-519.439 637.908,-516.638 638.391,-523.621"/>
</g>
<!-- 1023548907491&#45;&gt;1023548907467 -->
<g id="edge58" class="edge"><title>1023548907491&#45;&gt;1023548907467</title>
<path fill="none" stroke="#2ca02c" stroke-width="2" d="M463.247,-928.839C362.214,-929.495 125.351,-924.349 74.9345,-866.449 -1.00254,-779.242 -0.949364,-693.523 74.9345,-606.27 111.68,-564.019 475.194,-532.975 637.948,-520.837"/>
<polygon fill="#2ca02c" stroke="#2ca02c" stroke-width="2" points="638.658,-524.294 648.372,-520.065 638.141,-517.313 638.658,-524.294"/>
</g>
<!-- 1023548907491&#45;&gt;1023548907469 -->
<g id="edge59" class="edge"><title>1023548907491&#45;&gt;1023548907469</title>
<path fill="none" stroke="#ffbb78" stroke-width="2" d="M463.113,-927.836C368.464,-926.623 157.103,-918.192 112.935,-866.449 37.858,-778.5 33.3883,-690.198 112.935,-606.27 164.295,-552.079 713.551,-595.184 783.935,-570.27 792.825,-567.123 801.581,-562.584 809.913,-557.444"/>
<polygon fill="#ffbb78" stroke="#ffbb78" stroke-width="2" points="811.957,-560.29 818.43,-551.903 808.139,-554.423 811.957,-560.29"/>
</g>
<!-- 1023548907491&#45;&gt;1023548907469 -->
<g id="edge60" class="edge"><title>1023548907491&#45;&gt;1023548907469</title>
<path fill="none" stroke="#2ca02c" stroke-width="2" d="M463.399,-927.687C372.388,-926.005 173.613,-916.445 130.935,-866.449 55.858,-778.5 51.3883,-690.198 130.935,-606.27 182.295,-552.079 731.551,-595.184 801.935,-570.27 807.118,-568.435 812.255,-566.127 817.248,-563.503"/>
<polygon fill="#2ca02c" stroke="#2ca02c" stroke-width="2" points="819.111,-566.47 826.059,-558.472 815.639,-560.392 819.111,-566.47"/>
</g>
<!-- 1023548907491&#45;&gt;1023548907470 -->
<g id="edge61" class="edge"><title>1023548907491&#45;&gt;1023548907470</title>
<path fill="none" stroke="#ffbb78" stroke-width="2" d="M463.34,-926.63C379.235,-923.082 205.458,-910.384 168.935,-866.449 95.0125,-777.528 89.1051,-689.929 168.935,-606.27 198.422,-575.368 894.647,-576.288 936.935,-570.27 991.168,-562.551 1051.35,-547.836 1097.7,-535.562"/>
<polygon fill="#ffbb78" stroke="#ffbb78" stroke-width="2" points="1098.61,-538.941 1107.37,-532.983 1096.81,-532.177 1098.61,-538.941"/>
</g>
<!-- 1023548907491&#45;&gt;1023548907470 -->
<g id="edge62" class="edge"><title>1023548907491&#45;&gt;1023548907470</title>
<path fill="none" stroke="#2ca02c" stroke-width="2" d="M463.187,-926.13C382.813,-921.955 221.917,-908.53 186.935,-866.449 113.013,-777.528 107.105,-689.929 186.935,-606.27 216.422,-575.368 912.647,-576.288 954.935,-570.27 1002.91,-563.443 1055.53,-551.142 1097.33,-539.897"/>
<polygon fill="#2ca02c" stroke="#2ca02c" stroke-width="2" points="1098.44,-543.223 1107.17,-537.216 1096.6,-536.469 1098.44,-543.223"/>
</g>
<!-- 1023548907491&#45;&gt;1023548907473 -->
<g id="edge63" class="edge"><title>1023548907491&#45;&gt;1023548907473</title>
<path fill="none" stroke="#ffbb78" stroke-width="2" d="M463.423,-924.979C390.676,-918.944 253.915,-902.627 224.935,-866.449 152.639,-776.2 144.626,-689.469 224.935,-606.27 264.237,-565.553 1187.37,-580.977 1242.93,-570.27 1272.32,-564.608 1303.6,-554.197 1330.81,-543.941"/>
<polygon fill="#ffbb78" stroke="#ffbb78" stroke-width="2" points="1332.17,-547.17 1340.25,-540.328 1329.66,-540.632 1332.17,-547.17"/>
</g>
<!-- 1023548907491&#45;&gt;1023548907473 -->
<g id="edge64" class="edge"><title>1023548907491&#45;&gt;1023548907473</title>
<path fill="none" stroke="#2ca02c" stroke-width="2" d="M463.192,-923.937C394.542,-917.166 270.386,-900.718 242.935,-866.449 170.639,-776.2 162.626,-689.469 242.935,-606.27 282.237,-565.553 1205.37,-580.977 1260.93,-570.27 1286.15,-565.411 1312.76,-557.055 1336.2,-548.301"/>
<polygon fill="#2ca02c" stroke="#2ca02c" stroke-width="2" points="1337.6,-551.511 1345.69,-544.668 1335.1,-544.974 1337.6,-551.511"/>
</g>
<!-- 1023548907491&#45;&gt;1023548907478 -->
<g id="edge65" class="edge"><title>1023548907491&#45;&gt;1023548907478</title>
<path fill="none" stroke="#ffbb78" stroke-width="2" d="M463.329,-927.795C416.17,-925.253 345.1,-913.495 310.935,-866.449 281.661,-826.14 283.268,-795.789 310.935,-754.36 406.331,-611.508 500.259,-643.581 667.935,-606.27 1017.52,-528.48 1125.54,-657.331 1472.93,-570.27 1491.68,-565.573 1511.01,-557.68 1528.7,-549.316"/>
<polygon fill="#ffbb78" stroke="#ffbb78" stroke-width="2" points="1530.32,-552.422 1537.79,-544.914 1527.27,-546.121 1530.32,-552.422"/>
</g>
<!-- 1023548907491&#45;&gt;1023548907478 -->
<g id="edge66" class="edge"><title>1023548907491&#45;&gt;1023548907478</title>
<path fill="none" stroke="#2ca02c" stroke-width="2" d="M463.077,-926.759C420.605,-922.612 359.754,-908.888 328.935,-866.449 299.661,-826.14 301.268,-795.789 328.935,-754.36 424.331,-611.508 518.259,-643.581 685.935,-606.27 1035.52,-528.48 1143.54,-657.331 1490.93,-570.27 1505.82,-566.54 1521.07,-560.794 1535.23,-554.398"/>
<polygon fill="#2ca02c" stroke="#2ca02c" stroke-width="2" points="1536.79,-557.531 1544.35,-550.115 1533.81,-551.194 1536.79,-557.531"/>
</g>
<!-- 1023548907491&#45;&gt;1023548907480 -->
<g id="edge67" class="edge"><title>1023548907491&#45;&gt;1023548907480</title>
<path fill="none" stroke="#ffbb78" stroke-width="2" d="M523.048,-909.762C534.571,-898.349 550.133,-882.744 560.935,-866.449 590.687,-821.565 562.79,-785.199 606.935,-754.36 692.8,-694.374 1448.17,-746.959 1548.93,-718.36 1666.6,-684.961 1787.07,-605.7 1856.89,-556.645"/>
<polygon fill="#ffbb78" stroke="#ffbb78" stroke-width="2" points="1859,-559.442 1865.15,-550.817 1854.96,-553.722 1859,-559.442"/>
</g>
<!-- 1023548907491&#45;&gt;1023548907480 -->
<g id="edge68" class="edge"><title>1023548907491&#45;&gt;1023548907480</title>
<path fill="none" stroke="#2ca02c" stroke-width="2" d="M538.691,-909.762C552.571,-898.349 568.133,-882.744 578.935,-866.449 608.687,-821.565 580.79,-785.199 624.935,-754.36 710.8,-694.374 1466.17,-746.959 1566.93,-718.36 1680.57,-686.107 1796.81,-611.086 1862.71,-561.799"/>
<polygon fill="#2ca02c" stroke="#2ca02c" stroke-width="2" points="1865.02,-564.442 1870.89,-555.621 1860.8,-558.857 1865.02,-564.442"/>
</g>
<!-- 1023548907498 -->
<g id="node36" class="node"><title>1023548907498</title>
<polygon fill="white" stroke="white" points="1747.43,-947.949 1656.43,-947.949 1656.43,-909.949 1747.43,-909.949 1747.43,-947.949"/>
<text text-anchor="middle" x="1701.93" y="-932.749" font-family="monospace" font-size="14.00">Barren</text>
<text text-anchor="middle" x="1701.93" y="-917.749" font-family="monospace" font-size="14.00">Launchpad</text>
</g>
<!-- 1023548907498&#45;&gt;1023548907543 -->
<g id="edge83" class="edge"><title>1023548907498&#45;&gt;1023548907543</title>
<path fill="none" stroke="#dbdb8d" stroke-width="2" d="M1656.29,-928.021C1498.23,-927.812 976.229,-922.894 820.935,-866.449 815.767,-864.571 810.641,-862.231 805.656,-859.585"/>
<polygon fill="#dbdb8d" stroke="#dbdb8d" stroke-width="2" points="807.27,-856.475 796.857,-854.522 803.779,-862.543 807.27,-856.475"/>
</g>
<!-- 1023548907498&#45;&gt;1023548907543 -->
<g id="edge84" class="edge"><title>1023548907498&#45;&gt;1023548907543</title>
<path fill="none" stroke="#98df8a" stroke-width="2" d="M1656.38,-928.008C1500.73,-927.653 991.911,-922.051 838.935,-866.449 830.071,-863.228 821.329,-858.648 813.004,-853.49"/>
<polygon fill="#98df8a" stroke="#98df8a" stroke-width="2" points="814.779,-850.469 804.491,-847.937 810.955,-856.332 814.779,-850.469"/>
</g>
<!-- 1023548907498&#45;&gt;1023548907549 -->
<g id="edge85" class="edge"><title>1023548907498&#45;&gt;1023548907549</title>
<path fill="none" stroke="#dbdb8d" stroke-width="2" d="M1656.22,-928.321C1546.52,-928.366 1261.08,-922.834 1031.93,-866.449 1012.3,-861.617 991.773,-854.389 973.139,-846.748"/>
<polygon fill="#dbdb8d" stroke="#dbdb8d" stroke-width="2" points="974.444,-843.5 963.869,-842.849 971.73,-849.952 974.444,-843.5"/>
</g>
<!-- 1023548907498&#45;&gt;1023548907549 -->
<g id="edge86" class="edge"><title>1023548907498&#45;&gt;1023548907549</title>
<path fill="none" stroke="#98df8a" stroke-width="2" d="M1656.11,-928.311C1548.53,-928.015 1272.64,-921.25 1049.93,-866.449 1026.32,-860.639 1001.43,-851.366 979.11,-842.074"/>
<polygon fill="#98df8a" stroke="#98df8a" stroke-width="2" points="980.287,-838.772 969.713,-838.101 977.561,-845.219 980.287,-838.772"/>
</g>
<!-- 1023548907498&#45;&gt;1023548907558 -->
<g id="edge87" class="edge"><title>1023548907498&#45;&gt;1023548907558</title>
<path fill="none" stroke="#dbdb8d" stroke-width="2" d="M1656.16,-925.365C1547.11,-918.453 1275.38,-897.901 1190.93,-866.449 1184.57,-864.077 1178.2,-861.12 1172.03,-857.815"/>
<polygon fill="#dbdb8d" stroke="#dbdb8d" stroke-width="2" points="1173.57,-854.662 1163.14,-852.753 1170.1,-860.744 1173.57,-854.662"/>
</g>
<!-- 1023548907498&#45;&gt;1023548907558 -->
<g id="edge88" class="edge"><title>1023548907498&#45;&gt;1023548907558</title>
<path fill="none" stroke="#98df8a" stroke-width="2" d="M1656.11,-924.752C1550.03,-917.293 1291.01,-897.02 1208.93,-866.449 1198.85,-862.692 1188.78,-857.467 1179.19,-851.72"/>
<polygon fill="#98df8a" stroke="#98df8a" stroke-width="2" points="1180.87,-848.643 1170.53,-846.323 1177.16,-854.584 1180.87,-848.643"/>
</g>
<!-- 1023548907498&#45;&gt;1023548907565 -->
<g id="edge89" class="edge"><title>1023548907498&#45;&gt;1023548907565</title>
<path fill="none" stroke="#dbdb8d" stroke-width="2" d="M1656.35,-924.443C1595.7,-918.297 1486.61,-902.61 1400.93,-866.449 1394.67,-863.806 1388.38,-860.662 1382.26,-857.235"/>
<polygon fill="#dbdb8d" stroke="#dbdb8d" stroke-width="2" points="1383.82,-854.093 1373.43,-852.037 1380.27,-860.126 1383.82,-854.093"/>
</g>
<!-- 1023548907498&#45;&gt;1023548907565 -->
<g id="edge90" class="edge"><title>1023548907498&#45;&gt;1023548907565</title>
<path fill="none" stroke="#98df8a" stroke-width="2" d="M1656.26,-923.048C1598.92,-916.061 1498.76,-900.142 1418.93,-866.449 1409.14,-862.315 1399.28,-856.953 1389.83,-851.201"/>
<polygon fill="#98df8a" stroke="#98df8a" stroke-width="2" points="1391.61,-848.187 1381.28,-845.834 1387.89,-854.116 1391.61,-848.187"/>
</g>
<!-- 1023548907498&#45;&gt;1023548907601 -->
<g id="edge115" class="edge"><title>1023548907498&#45;&gt;1023548907601</title>
<path fill="none" stroke="#98df8a" stroke-width="2" d="M1688.75,-909.739C1683.57,-900.312 1677.6,-888.173 1671.89,-875.662"/>
<polygon fill="#98df8a" stroke="#98df8a" stroke-width="2" points="1675.07,-874.211 1667.78,-866.52 1668.69,-877.077 1675.07,-874.211"/>
</g>
<!-- 1023548907498&#45;&gt;1023548907601 -->
<g id="edge116" class="edge"><title>1023548907498&#45;&gt;1023548907601</title>
<path fill="none" stroke="#dbdb8d" stroke-width="2" d="M1698.87,-909.739C1695.46,-899.804 1690.24,-886.858 1684.44,-873.638"/>
<polygon fill="#dbdb8d" stroke="#dbdb8d" stroke-width="2" points="1687.62,-872.176 1680.34,-864.476 1681.23,-875.034 1687.62,-872.176"/>
</g>
<!-- 1023548907498&#45;&gt;1023548907534 -->
<g id="edge117" class="edge"><title>1023548907498&#45;&gt;1023548907534</title>
<path fill="none" stroke="#dbdb8d" stroke-width="2" d="M1728.99,-909.897C1734.82,-907.217 1741,-904.629 1746.93,-902.449 1804.82,-881.199 1824.8,-891.979 1880.93,-866.449 1890.61,-862.047 1900.42,-856.548 1909.84,-850.741"/>
<polygon fill="#dbdb8d" stroke="#dbdb8d" stroke-width="2" points="1911.79,-853.647 1918.38,-845.344 1908.05,-847.73 1911.79,-853.647"/>
</g>
<!-- 1023548907498&#45;&gt;1023548907534 -->
<g id="edge118" class="edge"><title>1023548907498&#45;&gt;1023548907534</title>
<path fill="none" stroke="#98df8a" stroke-width="2" d="M1746.74,-909.897C1752.82,-907.217 1759,-904.629 1764.93,-902.449 1822.82,-881.199 1842.8,-891.979 1898.93,-866.449 1905.02,-863.683 1911.15,-860.484 1917.14,-857.047"/>
<polygon fill="#98df8a" stroke="#98df8a" stroke-width="2" points="1919.01,-860.004 1925.8,-851.865 1915.42,-853.998 1919.01,-860.004"/>
</g>
<!-- 1023548907498&#45;&gt;1023548907575 -->
<g id="edge91" class="edge"><title>1023548907498&#45;&gt;1023548907575</title>
<path fill="none" stroke="#98df8a" stroke-width="2" d="M1656.2,-927.148C1553.13,-924.486 1307.22,-913.209 1241.93,-866.449 1196.66,-834.024 1231.81,-785.937 1185.93,-754.36 1118.8,-708.144 897.14,-747.268 820.935,-718.36 815.794,-716.409 810.687,-714.017 805.716,-711.332"/>
<polygon fill="#98df8a" stroke="#98df8a" stroke-width="2" points="807.339,-708.227 796.937,-706.217 803.815,-714.275 807.339,-708.227"/>
</g>
<!-- 1023548907498&#45;&gt;1023548907575 -->
<g id="edge92" class="edge"><title>1023548907498&#45;&gt;1023548907575</title>
<path fill="none" stroke="#c49c94" stroke-width="2" d="M1656.09,-926.877C1556.18,-923.759 1323.22,-911.771 1259.93,-866.449 1214.66,-834.024 1249.81,-785.937 1203.93,-754.36 1136.8,-708.144 915.14,-747.268 838.935,-718.36 830.229,-715.057 821.623,-710.486 813.406,-705.378"/>
<polygon fill="#c49c94" stroke="#c49c94" stroke-width="2" points="815.283,-702.423 804.996,-699.89 811.458,-708.286 815.283,-702.423"/>
</g>
<!-- 1023548907498&#45;&gt;1023548907510 -->
<g id="edge105" class="edge"><title>1023548907498&#45;&gt;1023548907510</title>
<path fill="none" stroke="#98df8a" stroke-width="2" d="M1656.25,-928.211C1600.42,-926.506 1506.47,-916.03 1446.93,-866.449 1404.88,-831.426 1440.15,-786.616 1395.93,-754.36 1340.44,-713.877 1156.27,-731.916 1088.93,-718.36 1053.37,-711.2 1014.81,-700.638 982.327,-690.676"/>
<polygon fill="#98df8a" stroke="#98df8a" stroke-width="2" points="983.04,-687.233 972.452,-687.608 980.963,-693.917 983.04,-687.233"/>
</g>
<!-- 1023548907498&#45;&gt;1023548907510 -->
<g id="edge106" class="edge"><title>1023548907498&#45;&gt;1023548907510</title>
<path fill="none" stroke="#c49c94" stroke-width="2" d="M1656.16,-927.65C1604.21,-924.669 1519.91,-912.227 1464.93,-866.449 1422.88,-831.426 1458.15,-786.616 1413.93,-754.36 1358.44,-713.877 1174.27,-731.916 1106.93,-718.36 1066.1,-710.138 1021.3,-697.431 984.422,-686.297"/>
<polygon fill="#c49c94" stroke="#c49c94" stroke-width="2" points="985.319,-682.911 974.733,-683.354 983.284,-689.609 985.319,-682.911"/>
</g>
<!-- 1023548907498&#45;&gt;1023548907513 -->
<g id="edge107" class="edge"><title>1023548907498&#45;&gt;1023548907513</title>
<path fill="none" stroke="#98df8a" stroke-width="2" d="M1656.43,-924.248C1612.3,-918.427 1546.18,-903.637 1502.93,-866.449 1460.71,-830.139 1491.58,-787.646 1446.93,-754.36 1372.77,-699.067 1327.13,-754.411 1241.93,-718.36 1237.09,-716.309 1232.26,-713.9 1227.53,-711.255"/>
<polygon fill="#98df8a" stroke="#98df8a" stroke-width="2" points="1228.97,-708.038 1218.59,-705.911 1225.38,-714.046 1228.97,-708.038"/>
</g>
<!-- 1023548907498&#45;&gt;1023548907513 -->
<g id="edge108" class="edge"><title>1023548907498&#45;&gt;1023548907513</title>
<path fill="none" stroke="#c49c94" stroke-width="2" d="M1656.24,-922.069C1616.49,-915.026 1559.58,-899.681 1520.93,-866.449 1478.71,-830.139 1509.58,-787.646 1464.93,-754.36 1390.77,-699.067 1345.13,-754.411 1259.93,-718.36 1251.36,-714.731 1242.83,-709.979 1234.64,-704.787"/>
<polygon fill="#c49c94" stroke="#c49c94" stroke-width="2" points="1236.53,-701.837 1226.25,-699.245 1232.67,-707.677 1236.53,-701.837"/>
</g>
<!-- 1023548907498&#45;&gt;1023548907518 -->
<g id="edge109" class="edge"><title>1023548907498&#45;&gt;1023548907518</title>
<path fill="none" stroke="#98df8a" stroke-width="2" d="M1656.34,-916.847C1626.92,-907.186 1589.68,-890.857 1563.93,-866.449 1522.77,-827.432 1546.42,-790.771 1502.93,-754.36 1464.14,-721.878 1439.95,-741.467 1394.93,-718.36 1390.34,-716.002 1385.72,-713.384 1381.17,-710.608"/>
<polygon fill="#98df8a" stroke="#98df8a" stroke-width="2" points="1382.83,-707.519 1372.52,-705.098 1379.07,-713.423 1382.83,-707.519"/>
</g>
<!-- 1023548907498&#45;&gt;1023548907518 -->
<g id="edge110" class="edge"><title>1023548907498&#45;&gt;1023548907518</title>
<path fill="none" stroke="#c49c94" stroke-width="2" d="M1656.22,-911.035C1632,-901.106 1603.09,-886.505 1581.93,-866.449 1540.77,-827.432 1564.42,-790.771 1520.93,-754.36 1482.14,-721.878 1457.95,-741.467 1412.93,-718.36 1404.85,-714.207 1396.67,-709.248 1388.74,-704.033"/>
<polygon fill="#c49c94" stroke="#c49c94" stroke-width="2" points="1390.49,-700.993 1380.24,-698.299 1386.58,-706.795 1390.49,-700.993"/>
</g>
<!-- 1023548907498&#45;&gt;1023548907523 -->
<g id="edge111" class="edge"><title>1023548907498&#45;&gt;1023548907523</title>
<path fill="none" stroke="#98df8a" stroke-width="2" d="M1707.28,-909.905C1721.85,-875.562 1754.76,-800.151 1717.93,-754.36 1671.16,-696.21 1622.56,-747.669 1553.93,-718.36 1547.68,-715.69 1541.4,-712.527 1535.28,-709.088"/>
<polygon fill="#98df8a" stroke="#98df8a" stroke-width="2" points="1536.85,-705.948 1526.46,-703.877 1533.29,-711.975 1536.85,-705.948"/>
</g>
<!-- 1023548907498&#45;&gt;1023548907523 -->
<g id="edge112" class="edge"><title>1023548907498&#45;&gt;1023548907523</title>
<path fill="none" stroke="#c49c94" stroke-width="2" d="M1717.57,-909.905C1739.85,-875.562 1772.76,-800.151 1735.93,-754.36 1689.16,-696.21 1640.56,-747.669 1571.93,-718.36 1562.16,-714.183 1552.3,-708.8 1542.86,-703.04"/>
<polygon fill="#c49c94" stroke="#c49c94" stroke-width="2" points="1544.64,-700.026 1534.31,-697.667 1540.91,-705.953 1544.64,-700.026"/>
</g>
<!-- 1023548907498&#45;&gt;1023548907531 -->
<g id="edge113" class="edge"><title>1023548907498&#45;&gt;1023548907531</title>
<path fill="none" stroke="#98df8a" stroke-width="2" d="M1726.69,-909.884C1733.13,-906.965 1740.13,-904.299 1746.93,-902.449 1833.06,-879.034 2086.72,-932.325 2146.93,-866.449 2180.55,-829.678 2169.69,-798.675 2146.93,-754.36 2135.39,-731.876 2115.43,-713.699 2095.14,-699.672"/>
<polygon fill="#98df8a" stroke="#98df8a" stroke-width="2" points="2097.02,-696.722 2086.75,-694.11 2093.15,-702.555 2097.02,-696.722"/>
</g>
<!-- 1023548907498&#45;&gt;1023548907531 -->
<g id="edge114" class="edge"><title>1023548907498&#45;&gt;1023548907531</title>
<path fill="none" stroke="#c49c94" stroke-width="2" d="M1744.35,-909.884C1751.13,-906.965 1758.13,-904.299 1764.93,-902.449 1851.06,-879.034 2104.72,-932.325 2164.93,-866.449 2198.55,-829.678 2187.69,-798.675 2164.93,-754.36 2151.58,-728.346 2126.95,-708.098 2102.24,-693.372"/>
<polygon fill="#c49c94" stroke="#c49c94" stroke-width="2" points="2103.94,-690.31 2093.52,-688.393 2100.47,-696.389 2103.94,-690.31"/>
</g>
<!-- 1023548907498&#45;&gt;1023548907467 -->
<g id="edge93" class="edge"><title>1023548907498&#45;&gt;1023548907467</title>
<path fill="none" stroke="#ffbb78" stroke-width="2" d="M1717.99,-909.69C1729.33,-898.691 1743.24,-883.526 1749.93,-866.449 1768.12,-820.07 1780.78,-793.481 1749.93,-754.36 1707.49,-700.52 1652.83,-761.983 1599.93,-718.36 1557.71,-683.535 1594.25,-636.965 1548.93,-606.27 1478.39,-558.485 863.35,-598.435 782.935,-570.27 777.745,-568.452 772.603,-566.157 767.607,-563.542"/>
<polygon fill="#ffbb78" stroke="#ffbb78" stroke-width="2" points="769.214,-560.43 758.792,-558.523 765.751,-566.513 769.214,-560.43"/>
</g>
<!-- 1023548907498&#45;&gt;1023548907467 -->
<g id="edge94" class="edge"><title>1023548907498&#45;&gt;1023548907467</title>
<path fill="none" stroke="#2ca02c" stroke-width="2" d="M1733.85,-909.69C1747.33,-898.691 1761.24,-883.526 1767.93,-866.449 1786.12,-820.07 1798.78,-793.481 1767.93,-754.36 1725.49,-700.52 1670.83,-761.983 1617.93,-718.36 1575.71,-683.535 1612.25,-636.965 1566.93,-606.27 1496.39,-558.485 881.35,-598.435 800.935,-570.27 792.033,-567.152 783.271,-562.63 774.937,-557.497"/>
<polygon fill="#2ca02c" stroke="#2ca02c" stroke-width="2" points="776.711,-554.476 766.418,-551.961 772.896,-560.345 776.711,-554.476"/>
</g>
<!-- 1023548907498&#45;&gt;1023548907469 -->
<g id="edge95" class="edge"><title>1023548907498&#45;&gt;1023548907469</title>
<path fill="none" stroke="#ffbb78" stroke-width="2" d="M1731.06,-909.936C1736.33,-907.414 1741.77,-904.862 1746.93,-902.449 1781.53,-886.298 1804.36,-898.611 1824.93,-866.449 1851.78,-824.486 1852.7,-795.721 1824.93,-754.36 1801.38,-719.275 1773.24,-739.978 1736.93,-718.36 1669.34,-678.113 1673.05,-635.307 1599.93,-606.27 1494.14,-564.254 1201.44,-587.632 1088.93,-570.27 1040.95,-562.865 988.22,-550.489 946.362,-539.345"/>
<polygon fill="#ffbb78" stroke="#ffbb78" stroke-width="2" points="947.078,-535.913 936.512,-536.691 945.257,-542.672 947.078,-535.913"/>
</g>
<!-- 1023548907498&#45;&gt;1023548907469 -->
<g id="edge96" class="edge"><title>1023548907498&#45;&gt;1023548907469</title>
<path fill="none" stroke="#2ca02c" stroke-width="2" d="M1747.69,-910.486C1753.54,-907.787 1759.39,-905.037 1764.93,-902.449 1799.53,-886.298 1822.36,-898.611 1842.93,-866.449 1869.78,-824.486 1870.7,-795.721 1842.93,-754.36 1819.38,-719.275 1791.24,-739.978 1754.93,-718.36 1687.34,-678.113 1691.05,-635.307 1617.93,-606.27 1512.14,-564.254 1219.44,-587.632 1106.93,-570.27 1052.8,-561.915 992.605,-547.23 946.235,-535.128"/>
<polygon fill="#2ca02c" stroke="#2ca02c" stroke-width="2" points="947.117,-531.741 936.556,-532.588 945.34,-538.512 947.117,-531.741"/>
</g>
<!-- 1023548907498&#45;&gt;1023548907470 -->
<g id="edge97" class="edge"><title>1023548907498&#45;&gt;1023548907470</title>
<path fill="none" stroke="#ffbb78" stroke-width="2" d="M1727.02,-909.933C1733.38,-907.048 1740.26,-904.381 1746.93,-902.449 1809.95,-884.212 1996.47,-915.583 2039.93,-866.449 2072.94,-829.137 2071,-793.303 2039.93,-754.36 1995.02,-698.059 1949.78,-742.529 1881.93,-718.36 1776.32,-680.734 1763.58,-637.623 1655.93,-606.27 1511.31,-564.147 1465.74,-604.006 1318.93,-570.27 1294.15,-564.574 1267.86,-556.07 1244.59,-547.44"/>
<polygon fill="#ffbb78" stroke="#ffbb78" stroke-width="2" points="1245.75,-544.136 1235.15,-543.873 1243.27,-550.683 1245.75,-544.136"/>
</g>
<!-- 1023548907498&#45;&gt;1023548907470 -->
<g id="edge98" class="edge"><title>1023548907498&#45;&gt;1023548907470</title>
<path fill="none" stroke="#2ca02c" stroke-width="2" d="M1744.7,-909.933C1751.38,-907.048 1758.26,-904.381 1764.93,-902.449 1827.95,-884.212 2014.47,-915.583 2057.93,-866.449 2090.94,-829.137 2089,-793.303 2057.93,-754.36 2013.02,-698.059 1967.78,-742.529 1899.93,-718.36 1794.32,-680.734 1781.58,-637.623 1673.93,-606.27 1529.31,-564.147 1483.74,-604.006 1336.93,-570.27 1308.02,-563.624 1277.05,-553.157 1249.98,-543.126"/>
<polygon fill="#2ca02c" stroke="#2ca02c" stroke-width="2" points="1251.16,-539.833 1240.57,-539.603 1248.71,-546.388 1251.16,-539.833"/>
</g>
<!-- 1023548907498&#45;&gt;1023548907473 -->
<g id="edge99" class="edge"><title>1023548907498&#45;&gt;1023548907473</title>
<path fill="none" stroke="#ffbb78" stroke-width="2" d="M1727,-909.835C1733.36,-906.959 1740.24,-904.321 1746.93,-902.449 1820.96,-881.746 2039.49,-923.557 2090.93,-866.449 2124.28,-829.435 2121.72,-793.528 2090.93,-754.36 2049.1,-701.134 1996.6,-759.624 1942.93,-718.36 1897.97,-683.787 1929.23,-637.569 1881.93,-606.27 1812.86,-560.56 1590.73,-592.489 1510.93,-570.27 1496.24,-566.178 1481.13,-560.301 1467.06,-553.897"/>
<polygon fill="#ffbb78" stroke="#ffbb78" stroke-width="2" points="1468.52,-550.715 1457.98,-549.625 1465.54,-557.049 1468.52,-550.715"/>
</g>
<!-- 1023548907498&#45;&gt;1023548907473 -->
<g id="edge100" class="edge"><title>1023548907498&#45;&gt;1023548907473</title>
<path fill="none" stroke="#2ca02c" stroke-width="2" d="M1744.67,-909.835C1751.36,-906.959 1758.24,-904.321 1764.93,-902.449 1838.96,-881.746 2057.49,-923.557 2108.93,-866.449 2142.28,-829.435 2139.72,-793.528 2108.93,-754.36 2067.1,-701.134 2014.6,-759.624 1960.93,-718.36 1915.97,-683.787 1947.23,-637.569 1899.93,-606.27 1830.86,-560.56 1608.73,-592.489 1528.93,-570.27 1510.41,-565.112 1491.22,-557.118 1473.59,-548.805"/>
<polygon fill="#2ca02c" stroke="#2ca02c" stroke-width="2" points="1475.06,-545.626 1464.53,-544.443 1472.02,-551.934 1475.06,-545.626"/>
</g>
<!-- 1023548907498&#45;&gt;1023548907478 -->
<g id="edge101" class="edge"><title>1023548907498&#45;&gt;1023548907478</title>
<path fill="none" stroke="#ffbb78" stroke-width="2" d="M1726.68,-909.845C1733.12,-906.93 1740.12,-904.275 1746.93,-902.449 1793.67,-889.918 2148.16,-902.051 2180.93,-866.449 2214.67,-829.796 2193.64,-802.529 2180.93,-754.36 2161.63,-681.195 2159.61,-648.662 2096.93,-606.27 1998.11,-539.433 1948.34,-591.469 1830.93,-570.27 1778.29,-560.764 1719.8,-547.595 1674.41,-536.522"/>
<polygon fill="#ffbb78" stroke="#ffbb78" stroke-width="2" points="1675.18,-533.108 1664.63,-534.121 1673.51,-539.906 1675.18,-533.108"/>
</g>
<!-- 1023548907498&#45;&gt;1023548907478 -->
<g id="edge102" class="edge"><title>1023548907498&#45;&gt;1023548907478</title>
<path fill="none" stroke="#2ca02c" stroke-width="2" d="M1744.34,-909.845C1751.12,-906.93 1758.12,-904.275 1764.93,-902.449 1811.67,-889.918 2166.16,-902.051 2198.93,-866.449 2232.67,-829.796 2211.64,-802.529 2198.93,-754.36 2179.63,-681.195 2177.61,-648.662 2114.93,-606.27 2016.11,-539.433 1966.34,-591.469 1848.93,-570.27 1790.17,-559.659 1724.12,-544.485 1674.32,-532.756"/>
<polygon fill="#2ca02c" stroke="#2ca02c" stroke-width="2" points="1675.12,-529.348 1664.59,-530.458 1673.51,-536.161 1675.12,-529.348"/>
</g>
<!-- 1023548907498&#45;&gt;1023548907480 -->
<g id="edge103" class="edge"><title>1023548907498&#45;&gt;1023548907480</title>
<path fill="none" stroke="#ffbb78" stroke-width="2" d="M1726.39,-909.942C1732.91,-906.979 1740.02,-904.282 1746.93,-902.449 1797.24,-889.118 2178.58,-904.637 2213.93,-866.449 2294.3,-779.656 2242.09,-689.394 2157.93,-606.27 2113.63,-562.508 2046.66,-539.589 1994.5,-527.696"/>
<polygon fill="#ffbb78" stroke="#ffbb78" stroke-width="2" points="1995.12,-524.25 1984.6,-525.531 1993.63,-531.088 1995.12,-524.25"/>
</g>
<!-- 1023548907498&#45;&gt;1023548907480 -->
<g id="edge104" class="edge"><title>1023548907498&#45;&gt;1023548907480</title>
<path fill="none" stroke="#2ca02c" stroke-width="2" d="M1744.03,-909.942C1750.91,-906.979 1758.02,-904.282 1764.93,-902.449 1815.24,-889.118 2196.58,-904.637 2231.93,-866.449 2312.3,-779.656 2260.09,-689.394 2175.93,-606.27 2127.42,-558.345 2051.71,-535.417 1994.59,-524.593"/>
<polygon fill="#2ca02c" stroke="#2ca02c" stroke-width="2" points="1994.98,-521.106 1984.51,-522.771 1993.73,-527.994 1994.98,-521.106"/>
</g>
</g>
</svg>
